<svg width="81" height="81" viewBox="0 0 81 81" fill="none" xmlns="http://www.w3.org/2000/svg">
<g id="vs">
<rect width="81" height="81" rx="5" fill="#EBF0FF"/>
<path id="Vector" d="M40.5 65C54.031 65 65 54.031 65 40.5C65 26.969 54.031 16 40.5 16C26.969 16 16 26.969 16 40.5C16 54.031 26.969 65 40.5 65Z" fill="#2E3D4C"/>
<path id="Vector_2" d="M49.8889 51.6666H39.2222V44.5555H37.4445V51.6666H32.1111V44.5555H30.3333V51.6666C30.3333 52.1381 30.5206 52.5902 30.854 52.9236C31.1874 53.257 31.6396 53.4443 32.1111 53.4443H49.8889C50.3604 53.4443 50.8126 53.257 51.146 52.9236C51.4794 52.5902 51.6667 52.1381 51.6667 51.6666V44.5555H49.8889V51.6666Z" fill="#F5CCA0"/>
<path id="Vector_3" d="M55.0356 36.7955L51.4089 29.5421C51.2617 29.2459 51.0348 28.9967 50.7537 28.8224C50.4727 28.6481 50.1485 28.5556 49.8178 28.5555H32.1822C31.8515 28.5556 31.5274 28.6481 31.2463 28.8224C30.9652 28.9967 30.7383 29.2459 30.5911 29.5421L26.9645 36.7955C26.8406 37.0439 26.7767 37.3179 26.7778 37.5955V40.3332C26.777 40.7486 26.9216 41.1512 27.1867 41.471C27.5784 41.92 28.0621 42.2794 28.6051 42.5248C29.1481 42.7703 29.7375 42.8959 30.3333 42.8932C31.3056 42.8947 32.2482 42.5586 33 41.9421C33.7518 42.5589 34.6942 42.896 35.6667 42.896C36.6391 42.896 37.5815 42.5589 38.3333 41.9421C39.0852 42.5589 40.0276 42.896 41 42.896C41.9725 42.896 42.9148 42.5589 43.6667 41.9421C44.4185 42.5589 45.3609 42.896 46.3333 42.896C47.3058 42.896 48.2482 42.5589 49 41.9421C49.8393 42.6312 50.913 42.9681 51.9955 42.8819C53.0779 42.7957 54.0848 42.2931 54.8045 41.4799C55.0727 41.1613 55.2205 40.7586 55.2222 40.3421V37.5955C55.2233 37.3179 55.1594 37.0439 55.0356 36.7955ZM51.6667 41.1155C51.287 41.1146 50.9131 41.0229 50.576 40.8482C50.2389 40.6735 49.9485 40.4207 49.7289 40.111L49 39.1155L48.28 40.111C48.0563 40.416 47.7638 40.664 47.4264 40.8349C47.089 41.0059 46.716 41.0949 46.3378 41.0949C45.9595 41.0949 45.5866 41.0059 45.2492 40.8349C44.9117 40.664 44.6193 40.416 44.3956 40.111L43.6667 39.1155L42.9467 40.111C42.7229 40.416 42.4305 40.664 42.0931 40.8349C41.7556 41.0059 41.3827 41.0949 41.0045 41.0949C40.6262 41.0949 40.2533 41.0059 39.9158 40.8349C39.5784 40.664 39.286 40.416 39.0622 40.111L38.3333 39.1155L37.6133 40.111C37.3896 40.416 37.0972 40.664 36.7597 40.8349C36.4223 41.0059 36.0494 41.0949 35.6711 41.0949C35.2929 41.0949 34.9199 41.0059 34.5825 40.8349C34.2451 40.664 33.9526 40.416 33.7289 40.111L33 39.1155L32.2711 40.111C32.0515 40.4207 31.7611 40.6735 31.424 40.8482C31.087 41.0229 30.713 41.1146 30.3333 41.1155C29.9983 41.1195 29.6664 41.0518 29.3597 40.9169C29.0531 40.782 28.7789 40.583 28.5556 40.3332V37.5955L32.1822 30.3332H49.8178L53.4445 37.5866V40.3066C53.2225 40.5598 52.9491 40.7629 52.6426 40.9024C52.3361 41.0418 52.0034 41.1145 51.6667 41.1155Z" fill="#F5CCA0"/>
<path id="Vector_4" d="M47.52 49.1064L48.1036 46.5786C48.1458 46.3961 48.0048 46.2223 47.8147 46.2223H42.9655L42.8524 45.6778C42.8242 45.542 42.7028 45.4445 42.5621 45.4445H41.2963C41.1327 45.4445 41 45.5751 41 45.7362V45.9307C41 46.0917 41.1327 46.2223 41.2963 46.2223H42.159L43.0263 50.396C42.8188 50.5135 42.679 50.7337 42.679 50.9862C42.679 51.3621 42.9885 51.6668 43.3704 51.6668C43.7522 51.6668 44.0617 51.3621 44.0617 50.9862C44.0617 50.7957 43.9821 50.6236 43.854 50.5001H46.4423C46.3142 50.6236 46.2346 50.7957 46.2346 50.9862C46.2346 51.3621 46.5441 51.6668 46.9259 51.6668C47.3078 51.6668 47.6173 51.3621 47.6173 50.9862C47.6173 50.7168 47.4582 50.4839 47.2274 50.3737L47.2955 50.0786C47.3377 49.8961 47.1967 49.7223 47.0066 49.7223H43.6928L43.612 49.3334H47.2311C47.3694 49.3334 47.4893 49.2392 47.52 49.1064Z" fill="#F5CCA0"/>
</g>
</svg>
