<svg width="81" height="81" viewBox="0 0 81 81" fill="none" xmlns="http://www.w3.org/2000/svg">
<g id="ab">
<rect x="1" y="1" width="79" height="79" rx="4" fill="#EBF0FF"/>
<rect x="1" y="1" width="79" height="79" rx="4" stroke="#FFC833" stroke-width="2"/>
<path id="Vector" d="M40.5 65C54.031 65 65 54.031 65 40.5C65 26.969 54.031 16 40.5 16C26.969 16 16 26.969 16 40.5C16 54.031 26.969 65 40.5 65Z" fill="#2E3D4C"/>
<g id="Clip path group">
<mask id="mask0_2174_5814" style="mask-type:luminance" maskUnits="userSpaceOnUse" x="26" y="25" width="29" height="29">
<g id="clip0_435_117">
<path id="Vector_2" d="M55 25H26V54H55V25Z" fill="white"/>
</g>
</mask>
<g mask="url(#mask0_2174_5814)">
<g id="Group">
<path id="Vector_3" d="M54.5469 52.1875H51.8281V43.9216C53.4848 44.8075 53.5346 46.6032 53.5346 46.6032C53.8504 44.1019 52.6999 43.14 51.8023 42.7684C51.7888 42.6668 51.7694 42.566 51.7443 42.4666C53.5659 40.9817 55 41.5993 55 41.5993C53.3697 39.6296 51.9786 40.4973 51.1874 41.3764C50.933 41.0727 50.615 40.8284 50.256 40.6608C49.897 40.4932 49.5056 40.4063 49.1094 40.4062H46.8438V36.7812C46.8438 35.2823 45.6244 34.0625 44.125 34.0625H43.6719V31.3438C43.6719 30.8557 43.4313 30.2744 43.086 29.9295L42.3673 29.2104C42.0225 28.8661 41.4407 28.625 40.9531 28.625V27.9716C42.1612 28.6662 42.4629 27.2765 43.6719 27.9716V25.6539C42.4629 24.9592 42.1612 26.349 40.9531 25.6539V25.4531C40.9531 25.2039 40.7488 25 40.5 25C40.2503 25 40.0469 25.2039 40.0469 25.4531V28.625C39.5593 28.625 38.9775 28.8661 38.6327 29.2104L37.914 29.9295C37.5687 30.2744 37.3281 30.8557 37.3281 31.3438V34.0625H36.875C35.3756 34.0625 34.1562 35.2823 34.1562 36.7812V40.4062H31.8906C31.4943 40.4064 31.1028 40.4933 30.7436 40.6609C30.3845 40.8285 30.0664 41.0727 29.8117 41.3764C29.0214 40.4973 27.6299 39.6291 26 41.5993C26 41.5993 27.4337 40.9817 29.2562 42.4675C29.231 42.5666 29.2116 42.6671 29.1982 42.7684C28.3005 43.14 27.1496 44.1019 27.4659 46.6032C27.4659 46.6032 27.5152 44.8065 29.1723 43.9216V52.1875H26.4531C26.2035 52.1875 26 52.3919 26 52.6406V53.5469C26 53.7965 26.2035 54 26.4531 54H54.5469C54.7956 54 55 53.7965 55 53.5469V52.6406C55 52.3919 54.7956 52.1875 54.5469 52.1875ZM50.4814 43.5958C50.5571 43.5745 50.6246 43.5496 50.7048 43.531C50.8571 43.5595 50.9975 43.5967 51.1339 43.637C51.1679 43.9248 51.206 44.2909 51.24 44.7467H50.4574C50.4697 44.3747 50.4774 43.9887 50.4814 43.5958ZM50.4538 44.9049C50.7968 45.3394 51.085 45.1881 51.2576 45.0023C51.2835 45.3811 51.3048 45.8093 51.3206 46.2865H50.3895C50.4148 45.8428 50.437 45.3852 50.4538 44.9049ZM50.0156 43.7435C50.0195 43.7424 50.0233 43.7409 50.027 43.739C50.0156 44.5628 49.9862 45.3417 49.9468 46.0726C49.9084 46.0041 49.8527 45.9469 49.7852 45.9067C49.7178 45.8666 49.641 45.8449 49.5625 45.8438H47.9136C48.0178 45.4196 48.2534 44.9271 48.7437 44.4844H49.5625C49.8113 44.4844 50.0156 44.2809 50.0156 44.0312V43.7435ZM30.9844 43.7444V44.0312C30.9844 44.2809 31.1878 44.4844 31.4375 44.4844H32.2563C32.7461 44.9271 32.9818 45.4196 33.086 45.8438H31.4375C31.359 45.8448 31.2821 45.8664 31.2146 45.9065C31.1471 45.9466 31.0913 46.0037 31.0528 46.0721C31.0129 45.3421 30.9844 44.5632 30.9726 43.7394L30.9844 43.7444ZM29.8656 43.6375C30.0015 43.5967 30.142 43.5595 30.2938 43.5315C30.3745 43.5509 30.442 43.575 30.5181 43.5963C30.5226 43.9891 30.5299 44.3752 30.5412 44.7476H29.7591C29.7936 44.2913 29.8312 43.9252 29.8656 43.6375ZM29.7419 45.0023C29.9155 45.1881 30.2036 45.3394 30.5462 44.904C30.5621 45.3847 30.5843 45.8419 30.6105 46.2865H29.678C29.6939 45.8093 29.7161 45.3811 29.7419 45.0023ZM29.6712 46.5094C29.8679 46.7015 30.2091 46.8846 30.6219 46.4881C30.6504 46.958 30.683 47.4025 30.7184 47.8244H29.6567C29.6558 47.3554 29.6603 46.9145 29.6712 46.5094ZM29.6576 48.0351C29.867 48.2467 30.2567 48.4642 30.7252 47.9145C30.7705 48.4392 30.8185 48.9236 30.867 49.3632H29.6866C29.6714 48.9206 29.6617 48.4779 29.6576 48.0351ZM29.6916 49.4928C29.8865 49.6971 30.3323 50.0247 30.891 49.5752C30.9218 49.8453 30.9536 50.0913 30.9839 50.3238V50.375C30.9839 50.4103 30.9962 50.4421 31.0043 50.476C31.0252 50.6283 31.0442 50.7697 31.0641 50.9024H29.7623C29.7326 50.4329 29.709 49.9629 29.6916 49.4928ZM29.857 52.1875C29.8217 51.7733 29.7922 51.3741 29.7673 50.9858C29.9404 51.1865 30.4456 51.6388 31.0859 51.0488C31.1946 51.7797 31.2757 52.1875 31.2757 52.1875H29.857ZM35.9688 46.7785L35.4087 47.2031L35.6212 46.5121L35.0625 46.0835L35.7535 46.0807L35.9688 45.3906L36.184 46.0807L36.875 46.0835L36.3167 46.5117L36.5288 47.2031L35.9688 46.7785ZM36.875 53.5469L37.479 53.0938H43.521L44.125 53.5469H36.875ZM38.7944 47.2031L38.2344 46.7785L37.6743 47.2031L37.8868 46.5121L37.3281 46.0835L38.0191 46.0807L38.2344 45.3906L38.4496 46.0807L39.1406 46.0835L38.5824 46.5117L38.7944 47.2031ZM38.6875 47.6562V52.1875H37.3281V47.6562H38.6875ZM41.0601 47.2031L40.5 46.7785L39.9399 47.2031L40.1525 46.5121L39.5938 46.0835L40.2848 46.0807L40.5 45.3906L40.7152 46.0807L41.4062 46.0835L40.848 46.5117L41.0601 47.2031ZM40.9531 47.6562V52.1875H40.0469V47.6562H40.9531ZM43.3257 47.2031L42.7656 46.7785L42.2056 47.2031L42.4181 46.5121L41.8594 46.0835L42.5504 46.0807L42.7656 45.3906L42.9809 46.0807L43.6719 46.0835L43.1136 46.5117L43.3257 47.2031ZM43.6719 47.6562V52.1875H42.3125V47.6562H43.6719ZM44.4712 47.2031L44.6837 46.5121L44.125 46.0835L44.816 46.0807L45.0312 45.3906L45.2465 46.0807L45.9375 46.0835L45.3793 46.5117L45.5913 47.2031L45.0312 46.7785L44.4712 47.2031ZM49.5625 49.0156H47.75C47.5003 49.0156 47.2969 49.22 47.2969 49.4688V50.375C47.2969 50.6247 47.5003 50.8281 47.75 50.8281H49.4868C49.4272 51.2533 49.358 51.6771 49.2793 52.0991L49.2612 52.1875H45.4844V47.6562H46.3906V44.9375H34.6094V47.6562H35.5156V52.1875H31.7375L31.7198 52.0991C31.641 51.6771 31.572 51.2533 31.5127 50.8281H33.25C33.4988 50.8281 33.7031 50.6247 33.7031 50.375V49.4688C33.7031 49.22 33.4988 49.0156 33.25 49.0156H31.4375C31.3872 49.0169 31.3375 49.027 31.2907 49.0455C31.2371 48.5461 31.1902 48.0459 31.1502 47.5452C31.2297 47.6153 31.3316 47.6547 31.4375 47.6562H33.25C33.4988 47.6562 33.7031 47.4528 33.7031 47.2031V46.2969C33.7031 46.1093 33.5862 45.9475 33.4231 45.8791C33.5033 45.3394 33.4326 44.8763 33.2636 44.4817C33.5056 44.474 33.7031 44.2755 33.7031 44.0312V43.125C33.7031 42.8762 33.4988 42.6719 33.25 42.6719H31.4375C31.3733 42.6722 31.31 42.6868 31.2522 42.7145C31.2023 42.6932 31.1516 42.671 31.104 42.6515C33.3139 40.5753 35.0625 42.1304 35.0625 42.1304C34.831 41.817 34.5527 41.5412 34.2374 41.3125H35.0625V36.7812C35.0625 35.7844 35.8777 34.9688 36.875 34.9688H38.2344V31.3438C38.2344 31.0945 38.3785 30.7465 38.5547 30.5698L39.2734 29.8516C39.4497 29.6753 39.7972 29.5312 40.0469 29.5312H40.9531C41.2019 29.5312 41.5503 29.6753 41.7266 29.8521L42.4453 30.5703C42.6215 30.7465 42.7656 31.0945 42.7656 31.3438V34.9688H44.125C45.1214 34.9688 45.9375 35.7844 45.9375 36.7812V41.3125H46.7622C46.4468 41.5411 46.1687 41.817 45.9375 42.1304C45.9375 42.1304 47.6857 40.5753 49.8951 42.6515C49.8475 42.671 49.7968 42.6932 49.7474 42.7145C49.6897 42.6867 49.6265 42.6721 49.5625 42.6719H47.75C47.5003 42.6719 47.2969 42.8762 47.2969 43.125V44.0312C47.2975 44.1486 47.3436 44.261 47.4255 44.3451C47.5074 44.4291 47.6187 44.478 47.736 44.4817C47.5669 44.8763 47.4967 45.3394 47.576 45.8791C47.4129 45.9475 47.2969 46.1093 47.2969 46.2969V47.2031C47.2969 47.4528 47.5003 47.6562 47.75 47.6562H49.5625C49.6682 47.6545 49.7698 47.6153 49.8493 47.5457C49.8092 48.0464 49.7625 48.5465 49.7093 49.046C49.6626 49.0272 49.6129 49.0169 49.5625 49.0156ZM51.1421 52.1875H49.7234C49.7234 52.1875 49.8045 51.7797 49.9128 51.0492C50.5535 51.6388 51.0583 51.1865 51.2318 50.9854C51.2069 51.3741 51.1774 51.7733 51.1421 52.1875ZM51.2368 50.9024H49.935L49.9934 50.4828C50.0029 50.4475 50.0156 50.4131 50.0156 50.375V50.3193C50.046 50.0882 50.0773 49.843 50.1085 49.5739C50.6668 50.0243 51.1126 49.6967 51.3075 49.4923C51.2907 49.9423 51.2681 50.4103 51.2368 50.9024ZM51.3125 49.3636H50.1316C50.181 48.9236 50.2295 48.4397 50.2739 47.9141C50.742 48.4637 51.1321 48.2476 51.341 48.0364C51.3383 48.4547 51.3283 48.8969 51.3125 49.3636ZM50.2812 47.8244C50.3165 47.402 50.3496 46.958 50.3786 46.4872C50.7905 46.8837 51.1321 46.7015 51.3283 46.5103C51.3387 46.9149 51.3433 47.3554 51.3419 47.8244H50.2812Z" fill="#F5CCA0"/>
<path id="Vector_4" d="M41.4062 35.875H39.5938C39.3441 35.875 39.1406 36.0789 39.1406 36.3281V39.9531C39.1406 40.2028 39.3441 40.4062 39.5938 40.4062H41.4062C41.655 40.4062 41.8594 40.2028 41.8594 39.9531V36.3281C41.8594 36.0789 41.655 35.875 41.4062 35.875ZM39.5938 34.0625C39.8425 34.0625 40.0469 33.8586 40.0469 33.6094V31.7969C40.0469 31.5477 39.8425 31.3438 39.5938 31.3438C39.3441 31.3438 39.1406 31.5477 39.1406 31.7969V33.6094C39.1406 33.8586 39.3441 34.0625 39.5938 34.0625ZM41.4062 31.3438C41.1566 31.3438 40.9531 31.5477 40.9531 31.7969V33.6094C40.9531 33.8586 41.1566 34.0625 41.4062 34.0625C41.655 34.0625 41.8594 33.8586 41.8594 33.6094V31.7969C41.8594 31.5477 41.655 31.3438 41.4062 31.3438ZM36.4219 37.6875H37.7812C38.03 37.6875 38.2344 37.484 38.2344 37.2344V36.3281C38.2344 36.0789 38.03 35.875 37.7812 35.875H36.4219C36.1722 35.875 35.9688 36.0789 35.9688 36.3281V37.2344C35.9688 37.4836 36.1722 37.6875 36.4219 37.6875ZM38.2344 39.9531V39.0469C38.2344 38.7981 38.03 38.5938 37.7812 38.5938H36.4219C36.1722 38.5938 35.9688 38.7981 35.9688 39.0469V39.9531C35.9688 40.2028 36.1722 40.4062 36.4219 40.4062H37.7812C38.03 40.4062 38.2344 40.2028 38.2344 39.9531ZM43.2188 37.6875H44.5781C44.8269 37.6875 45.0312 37.484 45.0312 37.2344V36.3281C45.0312 36.0789 44.8269 35.875 44.5781 35.875H43.2188C42.9691 35.875 42.7656 36.0789 42.7656 36.3281V37.2344C42.7656 37.4836 42.9691 37.6875 43.2188 37.6875ZM43.2188 40.4062H44.5781C44.8269 40.4062 45.0312 40.2028 45.0312 39.9531V39.0469C45.0312 38.7981 44.8269 38.5938 44.5781 38.5938H43.2188C42.9691 38.5938 42.7656 38.7981 42.7656 39.0469V39.9531C42.7656 40.2028 42.9691 40.4062 43.2188 40.4062Z" fill="#F5CCA0"/>
</g>
</g>
</g>
</g>
</svg>
