<svg width="81" height="81" viewBox="0 0 81 81" fill="none" xmlns="http://www.w3.org/2000/svg">
<g id="tem do">
<rect width="81" height="81" rx="5" fill="#EBF0FF"/>
<path id="Vector" d="M40.5 64.5C53.7548 64.5 64.5 53.7548 64.5 40.5C64.5 27.2452 53.7548 16.5 40.5 16.5C27.2452 16.5 16.5 27.2452 16.5 40.5C16.5 53.7548 27.2452 64.5 40.5 64.5Z" fill="#2E3D4C" stroke="#2E3D4C"/>
<path id="Vector_2" fill-rule="evenodd" clip-rule="evenodd" d="M41.1247 28.0621C41.0025 28.1289 40.863 28.1916 40.2875 28.4383C40.0889 28.5236 39.8451 28.6299 39.7458 28.6747C39.6464 28.7195 39.4987 28.785 39.4174 28.8205C39.3361 28.8559 39.2032 28.9144 39.1219 28.9505C39.0406 28.9867 38.9261 29.037 38.8675 29.0624C38.8088 29.0879 38.7128 29.1298 38.654 29.1557C38.5954 29.1816 38.4735 29.234 38.3832 29.2721C38.2929 29.3103 38.1747 29.3619 38.1205 29.387C37.8034 29.5331 37.576 29.6321 37.5576 29.6321C37.5351 29.6321 37.3499 29.7149 37.0371 29.8648C36.9287 29.9167 36.829 29.9591 36.8156 29.9591C36.802 29.9591 36.6764 30.0121 36.5364 30.0769C36.2375 30.2151 36.142 30.258 35.9207 30.3525C35.8305 30.3912 35.6965 30.4509 35.6231 30.4854C35.5497 30.5199 35.4804 30.548 35.4691 30.548C35.4579 30.548 35.3073 30.6142 35.1346 30.6952C34.9618 30.7761 34.8094 30.8425 34.796 30.8426C34.7826 30.8427 34.7273 30.8659 34.6731 30.8943C34.6189 30.9225 34.4357 31.0047 34.2659 31.0768C34.0962 31.1489 33.9336 31.2208 33.9048 31.2367C33.8759 31.2525 33.7784 31.2963 33.6881 31.3339C33.5979 31.3717 33.476 31.4237 33.4173 31.4496C33.3585 31.4755 33.2625 31.5178 33.2039 31.5437C33.1452 31.5697 33.0233 31.6221 32.933 31.6603C32.8426 31.6984 32.7171 31.7529 32.6539 31.7811C32.5239 31.8394 32.4145 31.887 32.1778 31.9882C32.0875 32.0268 31.9472 32.088 31.8659 32.1242C31.6279 32.2302 31.5284 32.2739 31.4046 32.3269C31.3403 32.3545 31.186 32.4224 31.0616 32.4781C30.4277 32.7614 30.3793 32.7826 29.9452 32.9676C29.9091 32.9831 29.8131 33.0251 29.7318 33.0612C29.6506 33.0973 29.5102 33.158 29.4198 33.1961C29.3296 33.2343 29.2321 33.2785 29.2033 33.2943C29.1743 33.3101 29.0044 33.3849 28.8256 33.4606C28.4144 33.6347 28.4523 33.5083 28.4523 34.7026C28.4523 35.9019 28.4299 35.8227 28.767 35.8145C29.2233 35.8032 29.1736 35.75 29.1736 36.2499C29.1736 36.7643 29.1732 36.7635 29.4734 36.7635C29.7747 36.7635 29.7842 36.7768 29.7673 37.1747C29.7598 37.3535 29.7484 39.2976 29.7422 41.4953L29.7307 45.4911L29.8604 45.7317C29.9317 45.864 30.0891 46.2005 30.2104 46.4794C30.7919 47.8164 30.8558 47.8474 31.7089 47.2069C32.0524 46.949 32.2401 46.8939 32.445 46.9907C32.5768 47.0531 32.5997 47.0432 32.5456 46.9471C32.41 46.7069 32.3811 46.6429 32.3419 46.4963C32.318 46.4066 32.3053 46.322 32.314 46.3081C32.3488 46.2519 32.4451 46.2888 32.4833 46.373C32.5568 46.5353 32.6359 46.6647 32.736 46.7865C32.7902 46.8525 32.8788 46.9612 32.933 47.0281C33.133 47.2751 33.3884 47.527 33.4136 47.502C33.4278 47.4879 33.4491 47.394 33.461 47.2937L33.4825 47.1111L33.3643 47.0383C33.0659 46.8545 32.7853 46.4094 32.7853 46.12C32.7853 45.9692 32.8588 45.9245 32.9128 46.0425C32.9333 46.0873 33.0185 46.2297 33.1022 46.3589C33.1859 46.4881 33.3077 46.6777 33.3728 46.7802C33.5046 46.9875 33.5627 47.0141 33.591 46.8801C33.6015 46.8306 33.6239 46.7646 33.6409 46.7333C33.6943 46.635 33.675 46.5601 33.5705 46.461C33.2916 46.196 33.1545 45.7014 33.2554 45.3241C33.31 45.12 33.4198 45.2208 33.4627 45.5143C33.5204 45.911 33.672 46.414 33.7337 46.414C33.7672 46.414 34.0329 45.9413 34.0329 45.8819C34.0329 45.8619 34.0058 45.8153 33.9727 45.7781C33.7811 45.5635 33.703 44.9947 33.8456 44.8527C33.9271 44.7715 34 44.8244 34.0005 44.9653C34.0007 45.0334 34.03 45.2289 34.0657 45.3998C34.1013 45.5707 34.1308 45.7142 34.1309 45.7188C34.1332 45.7623 34.2054 45.7048 34.261 45.6152L34.3302 45.5036L34.264 45.3769C34.1619 45.1818 34.1347 44.9794 34.1865 44.8023C34.2794 44.485 34.3851 44.577 34.4153 45.0012C34.4402 45.3507 34.4485 45.3622 34.6037 45.2573C34.7182 45.1799 34.721 45.1796 34.8883 45.234C35.1974 45.3343 35.1454 45.4669 34.8143 45.4228C34.4954 45.3801 34.3843 45.5957 34.6977 45.6487C35.017 45.7027 34.8902 45.8071 34.4655 45.8399C34.2858 45.8537 34.1314 45.9611 34.1314 46.0721C34.1314 46.1317 34.1271 46.1322 34.3046 46.0539C34.4743 45.9792 34.6977 46.0001 34.7156 46.0923C34.7306 46.1698 34.4676 46.3086 34.26 46.3328C34.0139 46.3613 33.9383 46.4062 33.8612 46.5696C33.7801 46.7418 33.7989 46.7686 33.9409 46.6834C34.2049 46.5247 34.5677 46.4752 34.8036 46.5653C34.9471 46.6202 34.4452 46.8053 33.9319 46.8868C33.7865 46.9099 33.6718 47.0121 33.6718 47.1185C33.6718 47.2169 33.7323 47.2218 33.846 47.1327C34.05 46.9729 34.5191 46.8834 34.6553 46.9784C34.7538 47.0472 34.6183 47.1272 34.197 47.2491C33.617 47.4171 33.5733 47.4481 33.5733 47.6924C33.5733 47.8488 33.5884 47.8504 33.736 47.71C34.005 47.4541 34.499 47.2808 34.6854 47.3768C34.8301 47.4514 34.7844 47.4874 34.3081 47.6752C33.6406 47.9381 33.5486 48.0156 33.544 48.3184C33.54 48.5807 33.5792 48.6027 33.7195 48.4168C33.9984 48.0474 34.8002 47.7171 34.7869 47.9771C34.7855 48.0031 34.5145 48.1805 34.4761 48.1805C34.4314 48.1805 34.0517 48.4198 33.8308 48.5873C33.5586 48.7936 33.5128 48.8737 33.6193 48.9573C33.6613 48.9901 33.7196 49.0634 33.7491 49.1201C33.8269 49.27 33.861 49.2763 33.9138 49.1505C34.0297 48.874 34.5087 48.5075 34.7544 48.5075C34.8761 48.5075 34.9349 48.5515 34.8507 48.5794C34.8109 48.5927 34.6987 48.6922 34.2135 49.1445L33.8851 49.4504L33.891 49.6047C33.8995 49.8298 33.9434 49.846 34.0507 49.6635C34.2635 49.3017 34.8478 48.8648 34.9964 48.9563C35.0118 48.9657 34.8414 49.1521 34.6176 49.3703C33.9546 50.0168 33.9344 50.0498 33.9344 50.4828C33.9344 50.7796 33.9376 50.7935 34.0082 50.8034C34.0721 50.8125 34.0848 50.8391 34.1023 51.0008C34.1193 51.1587 34.141 51.2063 34.2418 51.3066C34.3074 51.3721 34.3612 51.4517 34.3612 51.4836C34.3612 51.5605 34.4882 51.8443 34.5227 51.8443C34.5376 51.8443 34.5598 51.7817 34.572 51.7053C34.5843 51.6289 34.6152 51.5345 34.6406 51.4958C34.6661 51.457 34.7336 51.3392 34.7906 51.2341C34.965 50.912 35.486 50.3396 35.6047 50.3396C35.7025 50.3396 35.6619 50.4325 35.4856 50.6128C35.2695 50.8334 34.9405 51.29 34.9047 51.4191C34.8803 51.5071 34.8191 51.6487 34.7115 51.8667C34.6564 51.9786 34.6497 52.0262 34.675 52.1284C34.716 52.2939 34.8202 52.3028 34.8614 52.1444C34.9263 51.8952 35.1197 51.5994 35.3727 51.3628C35.7439 51.0156 36.0405 50.8797 35.7392 51.1947C35.6644 51.2731 35.5826 51.3814 35.5575 51.4354C35.5324 51.4894 35.4074 51.6808 35.2796 51.8607C35.1517 52.0406 35.0384 52.2099 35.0276 52.2368C35.0169 52.2638 34.9794 52.3178 34.9443 52.3567C34.7616 52.5592 34.5385 52.546 38.4329 52.564C41.7529 52.5794 42.2246 52.5726 41.8748 52.5143C41.7964 52.5013 41.7247 52.4805 41.7157 52.4681C41.7067 52.4557 41.5959 52.4114 41.4695 52.3697C41.0762 52.2398 40.5942 51.8563 40.4337 51.5457C40.3501 51.3839 40.4683 51.3909 37.9153 51.3971C35.473 51.4031 35.5747 51.4119 35.794 51.2153C35.9934 51.0368 36.0065 51.0205 35.9959 50.9657C35.9706 50.8348 35.6846 50.985 35.3683 51.2953C35.3173 51.3454 35.2508 51.3866 35.2205 51.3868C35.1904 51.3871 35.1324 51.3962 35.0917 51.407C34.9276 51.4507 35.0021 51.2859 35.3462 50.8428L35.4611 50.6948L37.7469 50.6976C40.2188 50.7008 40.1527 50.7044 40.1023 50.5739C39.9863 50.2734 40.1339 48.8775 40.3206 48.5075C40.4202 48.3103 40.4389 48.0784 40.4025 47.4935C40.368 46.9404 40.3436 46.3891 40.2729 44.5493C40.2545 44.0725 40.2236 43.5646 40.2042 43.4207C40.1847 43.2767 40.1554 42.7615 40.139 42.2757C40.0959 41.0008 40.0489 39.9705 40.0037 39.3152C39.982 39.0002 39.9631 38.6617 39.9617 38.5628L39.9591 38.3828L40.1806 38.3814C40.4652 38.3794 40.4641 38.3811 40.4751 37.9571L40.4845 37.5977H41.3546H42.2246L42.234 37.967C42.2447 38.3936 42.2532 38.4043 42.5629 38.3745L42.7372 38.3578L42.7241 38.8119C42.7006 39.6309 42.6057 41.5811 42.5713 41.9486C42.553 42.1465 42.5286 42.6855 42.5171 43.1464C42.5058 43.6074 42.4844 44.004 42.4696 44.0279C42.4287 44.0938 42.5275 44.2527 42.6103 44.2544C42.6238 44.2547 42.6902 44.2055 42.7581 44.1451C43.0416 43.8924 43.1974 43.8953 43.5643 44.1602C43.758 44.2999 43.8211 44.2878 44.1175 44.0535C44.222 43.9708 44.291 43.9482 44.4131 43.9567C44.5994 43.9696 44.6884 44.4573 44.5524 44.7193C44.5271 44.7679 44.5066 44.8356 44.5066 44.8697C44.5066 44.9038 44.4585 44.9825 44.3998 45.0444C44.3411 45.1064 44.2639 45.1908 44.2283 45.2319L44.1634 45.3067L44.2447 45.368C44.3204 45.4251 44.3254 45.4472 44.3192 45.6901L44.3125 45.9509L44.787 46.4176C45.0922 46.7177 45.2617 46.9085 45.2618 46.9518C45.2618 47.0255 45.5237 47.446 45.6211 47.5287C45.6922 47.5892 45.8765 47.9365 45.9496 48.1476C46.0174 48.3439 46.1012 48.3603 46.1313 48.1834C46.1435 48.1112 46.1454 48.039 46.1356 48.0231C46.1113 47.984 46.0296 46.4033 45.8866 43.208C45.8685 42.8032 45.8391 42.2511 45.8213 41.9812C45.8034 41.7114 45.7654 40.9311 45.7368 40.2475C45.7084 39.5638 45.6746 38.894 45.6621 38.7591C45.625 38.3607 45.6238 38.3631 45.8714 38.3722C46.1431 38.3822 46.1441 38.3806 46.1552 37.9571L46.1645 37.5977L47.016 37.589C48.0137 37.5787 47.9407 37.5483 47.9262 37.9689C47.9132 38.3436 47.9371 38.3829 48.1697 38.3709L48.3151 38.3634L48.3145 38.6512C48.3141 38.8095 48.2997 39.1965 48.2825 39.5114C48.2652 39.8263 48.2362 40.5624 48.2178 41.1471C48.1995 41.7318 48.1697 42.5121 48.1516 42.8809C48.0959 44.0137 48.0482 45.7432 48.0708 45.8021C48.0879 45.8466 48.1349 45.8578 48.3033 45.8578C50.1044 45.8578 50.764 48.4631 49.1744 49.2988C49.09 49.3431 48.9619 49.4151 48.8897 49.4588L48.7584 49.538L49.4573 49.5544C50.2886 49.5738 50.2182 49.5227 50.219 50.1084C50.2194 50.5618 50.2777 50.7639 50.4082 50.7646C50.4307 50.7648 50.4599 50.7659 50.4731 50.7672C50.5319 50.7733 50.5071 50.7054 50.4125 50.6022C50.2702 50.4469 50.3603 49.9796 50.5237 50.0258C50.5639 50.037 50.7668 50.0821 50.9746 50.1257C51.1823 50.1693 51.4851 50.235 51.6477 50.2716C51.8102 50.3082 52.0466 50.3553 52.1729 50.3762C52.2994 50.3972 52.4914 50.4352 52.5998 50.4608C52.9472 50.5427 52.9245 50.5567 52.9552 50.2414C52.9886 49.8985 52.981 37.5968 52.9472 37.5023C52.9025 37.3764 52.9275 36.8269 52.9796 36.7942C53.0055 36.7779 53.1234 36.7643 53.2416 36.764C53.5339 36.7634 53.5355 36.7606 53.5355 36.2679C53.5355 35.7708 53.5255 35.7826 53.9216 35.8073C54.2818 35.8296 54.2568 35.9138 54.2574 34.6782L54.2579 33.6234L54.1019 33.5535C54.0161 33.5151 53.8794 33.455 53.7981 33.4199C53.7169 33.3848 53.5897 33.3279 53.5154 33.2933C53.4413 33.2587 53.372 33.2305 53.3615 33.2305C53.3509 33.2305 53.2196 33.1733 53.0696 33.1034C52.9195 33.0335 52.553 32.8704 52.255 32.7413C51.6839 32.4933 51.4807 32.4044 51.3193 32.3313C51.2651 32.3067 51.1617 32.2615 51.0894 32.2308C50.7894 32.1032 50.5881 32.0153 50.2687 31.872C50.1751 31.8302 50.0393 31.7716 49.7433 31.6458C49.6711 31.6151 49.5676 31.5697 49.5135 31.5451C49.2122 31.4077 48.9625 31.2974 48.7739 31.2185C48.657 31.1697 48.4653 31.0864 48.348 31.0334C48.2305 30.9805 48.1049 30.9245 48.0689 30.9091C47.9518 30.8591 47.7127 30.7521 47.4875 30.6489C47.3663 30.5934 47.2582 30.548 47.2474 30.548C47.2364 30.548 47.1435 30.5101 47.0408 30.4636C46.9381 30.4172 46.8245 30.3664 46.7884 30.3508C46.7523 30.3352 46.6267 30.2793 46.5093 30.2266C46.3919 30.1738 46.1851 30.083 46.0497 30.0248C45.7486 29.8952 45.4752 29.7747 45.3438 29.7138C45.2896 29.6886 45.1566 29.6318 45.0483 29.5875C44.9399 29.5431 44.7479 29.46 44.6214 29.4025C44.495 29.3453 44.3103 29.2616 44.2111 29.2168C44.1117 29.172 43.9704 29.1073 43.897 29.0729C43.8236 29.0386 43.7513 29.0105 43.7364 29.0105C43.7215 29.0105 43.6486 28.9824 43.5744 28.9482C43.5001 28.9138 43.3434 28.8412 43.2261 28.7867C43.1086 28.7321 42.9165 28.6482 42.7992 28.6001C42.6819 28.552 42.4898 28.4694 42.3723 28.4164C42.255 28.3634 42.1294 28.3073 42.0933 28.2917C41.7708 28.1525 41.6207 28.0845 41.5466 28.0439C41.4281 27.9794 41.2631 27.9864 41.1247 28.0621ZM41.4808 29.6786C41.5873 29.7355 41.7938 29.8274 42.0768 29.9439C42.1943 29.9922 42.4307 30.0974 42.6022 30.1776C42.7737 30.2577 42.9436 30.3357 42.9798 30.3509C43.0159 30.3662 43.1119 30.408 43.1932 30.4441C43.2745 30.4801 43.4148 30.5416 43.5051 30.5807C43.6797 30.6563 43.8198 30.7193 44.1156 30.8559C44.2167 30.9025 44.3109 30.9405 44.3251 30.9405C44.3391 30.9405 44.4559 30.9895 44.5846 31.0493C45.0288 31.256 45.1323 31.3004 45.1697 31.3004C45.1904 31.3004 45.2305 31.3201 45.2591 31.3441C45.2876 31.3682 45.3626 31.4075 45.4258 31.4317C45.5642 31.4846 45.8285 31.5998 46.1071 31.7288C46.2201 31.7811 46.3203 31.8238 46.3298 31.8238C46.3392 31.8238 46.4516 31.8753 46.5794 31.9384C46.7074 32.0013 46.8263 32.0528 46.8438 32.0528C46.8613 32.0528 46.989 32.1056 47.1275 32.1701C47.266 32.2346 47.4237 32.3075 47.4779 32.332C47.73 32.446 48.0452 32.5863 48.1345 32.6244C48.1887 32.6474 48.3955 32.7362 48.5942 32.8217C48.9419 32.9715 49.0284 33.0099 49.4971 33.2237C49.6144 33.2772 49.7917 33.3537 49.8911 33.3935C49.9904 33.4334 50.1456 33.5009 50.2358 33.5433C50.3261 33.5858 50.5201 33.6713 50.6671 33.7335C50.9267 33.8431 51.0472 33.8971 51.5074 34.1098C51.629 34.166 51.7398 34.2116 51.7537 34.2113C51.7994 34.2103 52.0883 34.3585 52.0896 34.3836C52.0903 34.3971 47.267 34.4082 41.371 34.4082C35.475 34.4082 30.6511 34.396 30.6511 34.3813C30.6511 34.3554 30.9131 34.2119 30.9602 34.2119C30.9728 34.2119 31.0724 34.1677 31.1816 34.1137C31.2908 34.0598 31.3921 34.0156 31.4068 34.0156C31.434 34.0156 32.0702 33.7276 32.238 33.6392C32.2891 33.6124 32.3436 33.5903 32.3591 33.5903C32.3747 33.5903 32.5175 33.5306 32.6766 33.4576C32.8356 33.3846 32.9953 33.3118 33.0315 33.2959C33.0676 33.2799 33.1858 33.2274 33.2941 33.1792C33.4025 33.131 33.6028 33.0437 33.7393 32.985C33.8758 32.9264 34.0678 32.8421 34.1661 32.7976C34.2643 32.7532 34.4408 32.6756 34.5582 32.6255C34.6756 32.5752 34.8676 32.4906 34.985 32.4375C35.2113 32.335 35.2459 32.3198 35.6581 32.1395C35.8025 32.0764 35.965 32.0017 36.0192 31.9736C36.0734 31.9453 36.1354 31.9223 36.157 31.9222C36.1785 31.922 36.3337 31.8558 36.5017 31.775C36.6698 31.6941 36.8189 31.6279 36.8332 31.6277C36.8476 31.6276 36.9584 31.5817 37.0794 31.5257C37.2929 31.427 37.5568 31.3079 37.7594 31.2186C37.8136 31.1948 37.954 31.1309 38.0713 31.0767C38.1886 31.0223 38.3654 30.9465 38.4641 30.9079C38.5628 30.8694 38.681 30.8187 38.7268 30.7952C38.9653 30.6727 39.3129 30.5153 39.3445 30.5153C39.3645 30.5153 39.4813 30.4638 39.6042 30.401C39.7272 30.3381 39.8451 30.2865 39.8662 30.2864C39.8874 30.2864 39.9465 30.2648 39.9976 30.2386C40.1272 30.1718 40.5304 29.9919 40.5501 29.9919C40.5709 29.9919 41.0393 29.7741 41.1904 29.6943C41.3297 29.6207 41.3684 29.6186 41.4808 29.6786ZM53.4626 36.2974L53.4534 36.7145L41.4237 36.7221C34.8073 36.7262 29.3591 36.721 29.3167 36.7103C29.2406 36.6914 29.2393 36.684 29.2393 36.2856V35.8803H41.3556H53.4719L53.4626 36.2974ZM30.829 37.6013C30.8711 37.6173 30.8811 37.6779 30.8814 37.9202C30.882 38.3734 30.8779 38.3665 31.1514 38.3665H31.3814L31.3595 38.9144C31.3474 39.2158 31.3231 39.6685 31.3053 39.9203C31.2875 40.1723 31.2592 40.7685 31.2422 41.2452C31.2253 41.722 31.1962 42.333 31.1778 42.6028C31.1379 43.1853 31.0891 44.2316 31.0453 45.4489C31.0278 45.9347 30.9984 46.4583 30.98 46.6125C30.9617 46.7665 30.9466 47.0417 30.9466 47.2239C30.9466 47.5898 30.9302 47.6248 30.8131 47.5096C30.6751 47.374 30.6248 47.2848 30.3895 46.7575C30.3333 46.6315 30.2658 46.4893 30.2393 46.4416C30.213 46.3939 30.1914 46.3361 30.1914 46.3133C30.1914 46.2906 30.1029 46.0969 29.9947 45.8832L29.7979 45.4944L29.7975 41.5787C29.7972 39.4252 29.7971 37.6447 29.7972 37.6222C29.7975 37.5789 30.7216 37.5602 30.829 37.6013ZM36.5468 37.6177C36.5592 37.6376 36.5666 37.7977 36.5634 37.9733C36.5559 38.3735 36.583 38.4134 36.8403 38.3814C36.9586 38.3666 37.0203 38.3722 37.0368 38.3988C37.0697 38.4516 37.0605 39.0536 37.0197 39.5114C37.0014 39.7184 36.9719 40.2557 36.9542 40.7054C36.9366 41.1553 36.9079 41.803 36.8906 42.1449C36.8732 42.4867 36.8435 43.0976 36.8246 43.5024C36.8056 43.9072 36.7757 44.5255 36.7581 44.8764C36.7405 45.2272 36.7038 45.9706 36.6767 46.5284C36.5373 49.3924 36.5781 49.0637 36.3616 49.0637C36.1439 49.0637 36.1219 49.1118 36.1412 49.5445C36.1604 49.975 36.1655 49.969 35.764 49.9881C35.4451 50.0033 35.3732 49.9838 35.4423 49.9008C35.4929 49.84 35.3944 49.755 35.3382 49.811C35.3173 49.8318 35.281 49.8489 35.2576 49.8489C35.1963 49.8489 35.1996 49.5097 35.2613 49.4585C35.3202 49.4098 35.2038 49.1504 35.1003 49.1002C35.064 49.0825 35.0527 49.0672 35.0754 49.066C35.0979 49.0647 35.1164 49.0426 35.1164 49.0169C35.1164 48.9911 35.1459 48.9606 35.182 48.9492C35.2182 48.9378 35.2477 48.9 35.2477 48.8653C35.2477 48.788 35.0489 48.7744 34.9879 48.8476C34.9327 48.914 34.8287 48.9326 34.7879 48.8835C34.73 48.8141 34.787 48.6734 34.8955 48.6175C35.1566 48.4829 35.1767 48.3551 34.9314 48.3885C34.8526 48.3993 34.7865 48.3974 34.7848 48.3842C34.7461 48.1011 34.7506 48.086 34.8834 48.0505C35.0864 47.996 35.0907 47.852 34.8898 47.8371C34.8429 47.8337 34.7852 47.8285 34.7615 47.8257C34.6423 47.8115 34.7328 47.5497 34.8701 47.5115C35.0723 47.4554 35.0622 47.3203 34.854 47.2972C34.6758 47.2775 34.6453 47.2042 34.7699 47.0963L34.8546 47.0229L34.753 46.9306C34.6264 46.8154 34.638 46.779 34.8223 46.7112C35.024 46.637 35.0296 46.5328 34.8324 46.5185C34.6212 46.5032 34.5788 46.2837 34.7716 46.2035C34.9303 46.1373 34.9302 46.0325 34.7712 46.0028C34.5485 45.9612 34.5984 45.8592 34.8419 45.8583C34.9354 45.858 34.9842 45.8416 34.9979 45.8061C35.0313 45.7193 35.0218 45.7037 34.9111 45.6628C34.5111 45.5151 34.4977 45.47 34.855 45.4738C35.2253 45.4778 35.3451 45.2915 35.0182 45.22C34.7876 45.1696 34.9258 45.0632 35.2317 45.0555C35.4563 45.0498 35.576 44.9999 35.576 44.9119C35.576 44.7537 35.2315 44.6952 35.0452 44.8217C34.8955 44.9235 34.8865 44.9141 34.8865 44.6573C34.8865 44.5075 34.8734 44.4441 34.8398 44.4312C34.7659 44.403 34.6665 44.4737 34.6405 44.573C34.5976 44.737 34.5689 44.5645 34.5633 44.1077C34.5603 43.8737 34.5436 43.5572 34.5261 43.4043C34.5086 43.2514 34.4792 42.7509 34.4606 42.2921C34.3955 40.6764 34.3278 39.2289 34.2984 38.8245C34.2646 38.3568 34.2563 38.3726 34.5329 38.3752C34.7801 38.3776 34.7869 38.3663 34.7875 37.9548C34.7877 37.7734 34.7978 37.6151 34.8099 37.6031C34.8494 37.5637 36.522 37.5777 36.5468 37.6177ZM52.9102 37.6222C52.9093 37.6447 52.9141 40.4239 52.9206 43.7982C52.9273 47.1725 52.928 49.9474 52.9222 49.9647C52.9142 49.9886 52.4561 50.0012 52.2797 49.9823C52.2661 49.9809 52.255 49.7912 52.255 49.5609C52.255 49.0813 52.2467 49.0637 52.0193 49.0637C51.8215 49.0637 51.8404 49.1707 51.7948 47.7879C51.7744 47.1672 51.744 46.3207 51.7272 45.9068C51.7105 45.493 51.683 44.6687 51.666 44.0749C51.649 43.4812 51.619 42.7819 51.5992 42.521C51.5792 42.2602 51.5495 41.5389 51.5329 40.9181C51.5164 40.2974 51.485 39.4938 51.463 39.1324C51.4162 38.3617 51.4157 38.3641 51.6088 38.3713C51.8239 38.3794 51.8282 38.3717 51.8282 37.9774C51.8282 37.7836 51.838 37.6151 51.8501 37.6031C51.8937 37.5598 52.9118 37.5781 52.9102 37.6222ZM34.7983 44.7772C34.7936 44.9361 34.8047 44.9958 34.8444 45.0247C34.8731 45.0457 34.886 45.0798 34.8732 45.1005C34.7752 45.2585 34.6133 44.8615 34.6778 44.6213C34.7237 44.4506 34.8049 44.5554 34.7983 44.7772ZM35.3928 44.8309C35.4213 44.8418 35.4447 44.877 35.4447 44.9091C35.4447 45.0008 35.055 45.061 35.0032 44.9774C34.95 44.8916 35.2533 44.7775 35.3928 44.8309ZM34.6567 45.0891C34.6567 45.1319 34.6436 45.1751 34.6276 45.1849C34.5917 45.207 34.5561 45.0833 34.5803 45.0206C34.6061 44.9535 34.6567 44.9988 34.6567 45.0891ZM32.7063 47.2267C32.6195 47.3667 33.2045 47.9553 33.3446 47.8689C33.4429 47.8084 33.3713 47.6628 33.2001 47.575C33.1301 47.5391 32.9978 47.4399 32.9058 47.3544C32.7203 47.1822 32.73 47.1884 32.7063 47.2267ZM29.7545 47.5799C29.742 47.5924 29.7318 47.747 29.7318 47.9236V48.2446L29.844 48.3597C30.0399 48.5608 30.1887 48.457 30.1054 48.1773C30.0236 47.9031 29.8045 47.5301 29.7545 47.5799ZM29.8471 47.7173C30.0986 48.1842 30.1465 48.4516 29.9686 48.3953C29.8562 48.3597 29.8087 48.2421 29.786 47.9432C29.7647 47.6627 29.7824 47.597 29.8471 47.7173ZM32.6047 47.8206C32.56 47.9608 32.698 48.0684 33.0479 48.1661C33.0931 48.1786 33.1706 48.2175 33.2204 48.2525C33.3241 48.3252 33.3567 48.2904 33.3376 48.1279C33.3286 48.0507 33.305 48.0314 33.1793 47.999C33.0133 47.9564 32.7281 47.8282 32.7008 47.7841C32.6705 47.7352 32.6266 47.7519 32.6047 47.8206ZM32.4443 48.2365C32.4154 48.2654 32.2886 48.5479 32.3005 48.557C32.3053 48.5607 32.4126 48.5795 32.539 48.5991C32.8833 48.652 33.227 48.7217 33.2673 48.7465C33.3386 48.7904 33.3822 48.6817 33.3526 48.5342C33.3245 48.3941 33.3234 48.3932 33.1944 48.4023C33.0593 48.4118 32.6343 48.3049 32.5757 48.2465C32.5367 48.2076 32.4778 48.2032 32.4443 48.2365ZM32.1943 48.78C32.1943 48.7833 32.1802 48.8348 32.163 48.8946C32.1247 49.0276 32.2161 49.0766 32.6373 49.1492C32.7818 49.1742 32.9371 49.2024 32.9823 49.2119C33.1147 49.2398 33.3603 49.0004 33.3257 48.877C33.3071 48.8109 33.2964 48.8011 33.2866 48.8418C33.2588 48.9589 32.8305 48.9552 32.4061 48.8342C32.2896 48.8011 32.1943 48.7767 32.1943 48.78ZM46.3599 49.1053C46.3511 49.1281 46.3479 49.4925 46.3528 49.915L46.3615 50.683L46.4466 50.6929C46.5312 50.7027 46.5317 50.7012 46.5334 50.4638C46.5386 49.7522 46.5425 49.6457 46.565 49.6099C46.5995 49.5549 46.5756 49.154 46.535 49.1046C46.4912 49.0515 46.3805 49.0518 46.3599 49.1053ZM32.0293 49.2458C31.9512 49.4503 31.9979 49.5052 32.2763 49.5365C32.6283 49.576 32.7599 49.5677 32.8074 49.503C32.8756 49.4101 32.8605 49.3908 32.7188 49.3908C32.5613 49.3908 32.2257 49.2799 32.1742 49.2108C32.12 49.1381 32.0654 49.1513 32.0293 49.2458ZM35.182 49.4228C35.182 49.4405 35.0794 49.562 34.954 49.6931C34.8285 49.8241 34.6452 50.0563 34.5465 50.209C34.4479 50.3618 34.3365 50.5258 34.2988 50.5734C34.2611 50.6211 34.2213 50.6837 34.2102 50.7125C34.1774 50.7974 34.1402 50.7728 34.1173 50.6513C34.1022 50.5708 34.1154 50.4955 34.1629 50.3915C34.1997 50.3109 34.2301 50.2331 34.2305 50.2186C34.235 50.0353 35.182 49.2433 35.182 49.4228ZM47.4801 49.4629C47.4166 49.5533 47.4412 49.5872 47.5701 49.5866C47.7133 49.586 47.7906 49.5368 47.6957 49.5067C47.6571 49.4946 47.6256 49.4724 47.6256 49.4575C47.6256 49.3946 47.5256 49.3983 47.4801 49.4629ZM31.9973 49.683C31.9973 49.9025 32.131 49.9972 32.3407 49.926C32.5172 49.866 32.5486 49.7636 32.3994 49.734C32.3498 49.7242 32.2648 49.7005 32.2107 49.6815C32.0029 49.6085 31.9973 49.6087 31.9973 49.683ZM35.268 50.0369C35.2422 50.0864 35.1819 50.1634 35.1338 50.2081C35.0858 50.2528 35.0147 50.3408 34.9756 50.4037C34.9366 50.4665 34.8526 50.5722 34.789 50.6382C34.7252 50.7043 34.614 50.877 34.5417 51.022C34.3449 51.417 34.2799 51.2997 34.4451 50.8473C34.5689 50.5077 34.6183 50.4214 34.7839 50.2539C35.0654 49.9694 35.376 49.8302 35.268 50.0369ZM34.4269 50.7065C34.4269 50.7283 34.4057 50.8056 34.3797 50.8782C34.3537 50.9507 34.3234 51.0663 34.3122 51.1349L34.2918 51.2596L34.2325 51.1839C34.1108 51.0286 34.1199 50.9257 34.2746 50.7076C34.3117 50.6551 34.4269 50.6542 34.4269 50.7065ZM35.0835 50.7157C35.0835 50.7246 35.0176 50.8166 34.9372 50.9202C34.8567 51.0236 34.7559 51.1745 34.7131 51.2554C34.6295 51.4137 34.5099 51.4693 34.4708 51.3679C34.4495 51.3126 34.5154 51.1658 34.7006 50.8554C34.784 50.7156 35.0835 50.6063 35.0835 50.7157ZM33.7738 50.9692C33.5416 51.5093 33.5341 51.6301 33.7395 51.5271C33.8015 51.4959 33.9065 51.4717 33.9729 51.4732C34.1152 51.4765 34.1757 51.3586 34.0837 51.2573C34.0558 51.2265 34.0329 51.1859 34.0329 51.1671C34.0329 51.102 33.8983 50.8303 33.866 50.8303C33.8482 50.8303 33.8067 50.8928 33.7738 50.9692ZM34.0069 51.3536C33.9873 51.3852 33.925 51.4027 33.8323 51.4027C33.6863 51.4027 33.6406 51.2947 33.7355 51.1741C33.7499 51.1558 33.7803 51.0832 33.8032 51.0126L33.8447 50.8842L33.941 51.0944C34.0079 51.2402 34.0281 51.3196 34.0069 51.3536ZM52.4684 51.2979C52.3601 51.3122 52.0313 51.3319 51.7379 51.3417C50.8278 51.3717 51.1341 51.4191 52.2387 51.4191C53.2387 51.4191 53.2729 51.417 53.2729 51.3559C53.2729 51.2818 52.8305 51.2501 52.4684 51.2979ZM53.3221 51.2882C53.3332 51.3062 53.371 51.321 53.4061 51.321C53.4412 51.321 53.4699 51.3062 53.4699 51.2882C53.4699 51.2702 53.4321 51.2554 53.3858 51.2554C53.3381 51.2554 53.3106 51.2697 53.3221 51.2882ZM50.1397 51.405C50.0564 51.4879 50.0675 51.9137 50.1549 51.9926C50.2128 52.0447 50.2204 52.086 50.2123 52.3003L50.2029 52.5477H50.3672H50.5313L50.5196 52.2803C50.5094 52.0474 50.5158 52.0079 50.569 51.9748C50.6397 51.9308 50.6394 51.4241 50.5686 51.3786C50.4971 51.3326 50.1936 51.3513 50.1397 51.405ZM46.0969 51.4087C46.0597 51.416 46.002 51.4691 45.9689 51.5268C45.766 51.8789 45.4617 52.1247 44.8907 52.3979L44.5032 52.5833L45.5146 52.5697C46.5504 52.5558 46.6041 52.5484 46.5391 52.4275C46.5218 52.3955 46.5119 52.2748 46.5168 52.1593C46.5237 51.9964 46.5128 51.9352 46.4683 51.8861C46.4044 51.8157 46.3864 51.5034 46.4441 51.4678C46.5468 51.4046 46.3162 51.3652 46.0969 51.4087ZM34.001 51.5809C33.9821 51.616 33.9318 51.6638 33.8893 51.6873C33.5809 51.8568 33.4702 51.9098 33.4242 51.9098C33.3633 51.9098 32.9924 52.2516 32.9671 52.3309C32.9578 52.3603 32.9054 52.4038 32.8509 52.428C32.6481 52.5174 32.6593 52.5969 32.8744 52.5958C33.0194 52.5949 33.0507 52.5868 33.0069 52.5614C32.8793 52.4875 32.9776 52.3636 33.212 52.3027C33.2933 52.2816 33.5075 52.2122 33.6881 52.1485C33.8688 52.0847 34.0793 52.0105 34.156 51.9836C34.3154 51.9277 34.3264 51.8858 34.2304 51.6981C34.1347 51.5112 34.0591 51.4726 34.001 51.5809ZM34.2387 52.1224C34.165 52.1853 34.0884 52.2368 34.0687 52.2368C34.049 52.2368 34.0329 52.2486 34.0329 52.2631C34.0329 52.3026 33.7616 52.4258 33.6178 52.4517C33.5481 52.4642 33.4725 52.4891 33.4499 52.507C33.4272 52.525 33.3607 52.5518 33.3021 52.5665C33.2408 52.5819 33.4185 52.5865 33.721 52.577C34.5081 52.5527 34.6583 52.468 34.473 52.1527C34.3715 51.9801 34.4011 51.9839 34.2387 52.1224ZM54.1888 52.2533C54.1701 52.5237 54.1749 52.5649 54.2192 52.5127C54.2336 52.4959 54.2366 52.3718 54.226 52.2368L54.2068 51.9915L54.1888 52.2533ZM34.591 52.513C34.591 52.5591 34.6058 52.5968 34.6239 52.5968C34.642 52.5968 34.6567 52.5682 34.6567 52.5332C34.6567 52.4983 34.642 52.4606 34.6239 52.4496C34.6053 52.438 34.591 52.4655 34.591 52.513Z" fill="#F5CCA0"/>
<path id="Vector_3" fill-rule="evenodd" clip-rule="evenodd" d="M44.2993 44.1342C44.2632 44.1414 44.1842 44.1851 44.1238 44.2315C43.8116 44.4712 43.7839 44.4735 43.4817 44.2834C43.1602 44.0812 43.0322 44.0885 42.7607 44.3241C42.6037 44.4604 42.4631 44.4548 42.2481 44.3037C41.724 43.9351 41.6383 44.6802 42.1366 45.2741L42.2793 45.4441L42.198 45.5378C42.1439 45.6002 42.118 45.6672 42.1206 45.7383C42.1228 45.7991 42.1305 45.8177 42.1383 45.7815C42.146 45.7465 42.1591 45.6861 42.1676 45.6474C42.195 45.5225 42.355 45.5042 43.3182 45.5159C44.1473 45.526 44.2059 45.523 44.1921 45.4716C44.1828 45.4371 44.2308 45.3624 44.3204 45.2718C44.7164 44.8712 44.7014 44.0555 44.2993 44.1342ZM44.2332 45.6991C44.2502 45.7968 44.2423 45.852 44.2032 45.91L44.1501 45.9886H43.201C42.2617 45.9886 42.2513 45.9879 42.2015 45.9188C42.1332 45.8242 42.1081 45.859 42.1662 45.9677C42.2128 46.055 42.2116 46.0566 41.8256 46.4294C41.6127 46.635 41.4101 46.8459 41.3756 46.8977C41.3412 46.9497 41.2312 47.0998 41.1312 47.2312C40.8954 47.5414 40.8744 47.5747 40.6542 47.9843C40.5519 48.1748 40.4513 48.352 40.4307 48.3783C40.2221 48.6441 40.1705 48.9076 40.1502 49.812C40.1226 51.0402 40.1972 51.2836 40.7745 51.8473C41.0639 52.1298 41.3305 52.2973 41.4907 52.2973C41.5265 52.2973 41.6097 52.3328 41.6756 52.3761C41.7414 52.4195 41.8491 52.4634 41.915 52.4737C41.9808 52.484 42.0716 52.5088 42.1168 52.5285C42.4304 52.666 44.4378 52.5791 44.7663 52.4138C44.8885 52.3522 45.0551 52.2725 45.1365 52.2367C45.3238 52.1544 45.9741 51.5276 46.0778 51.3295C46.3504 50.8088 46.4622 49.5498 46.2721 49.1429C46.2269 49.0466 46.1584 48.8602 46.1196 48.7288C45.9454 48.138 45.8107 47.8474 45.5805 47.5658C45.4262 47.3769 45.2675 47.1214 45.2675 47.0617C45.2675 47.0329 45.0512 46.7975 44.7868 46.5387L44.306 46.0683L44.3026 45.8321C44.3003 45.6636 44.2865 45.5916 44.2548 45.5813C44.2197 45.5699 44.2151 45.5949 44.2332 45.6991ZM48.0081 46.0108C46.4499 46.3621 45.8958 47.9975 46.9712 49.0705C47.0919 49.191 47.3708 49.3679 47.5485 49.4369C47.9015 49.5739 47.8248 49.6066 47.1838 49.5929C46.5148 49.5785 46.5785 49.5219 46.5591 50.1471C46.5388 50.8002 46.5159 50.7679 47.0016 50.7679C47.4653 50.7679 47.4665 50.7687 47.4665 51.0763C47.4665 51.3763 47.4352 51.3984 47.0235 51.3894C46.861 51.386 46.6896 51.3726 46.6425 51.3599C46.4518 51.3084 46.3915 51.5441 46.5147 51.8589C46.5596 51.9737 46.5803 52.1037 46.5804 52.2716C46.5804 52.4064 46.5938 52.5246 46.6103 52.5346C46.6535 52.5605 50.0647 52.5612 50.1331 52.5353C50.2098 52.5062 50.217 52.0566 50.1423 51.9609C50.0855 51.8878 50.074 51.4975 50.1261 51.4031C50.1779 51.3091 50.5661 51.3125 50.6184 51.4074C50.6608 51.4842 50.6457 51.8845 50.5876 52.2255C50.5245 52.5953 50.3452 52.5616 52.3571 52.5586C53.4351 52.5569 54.1177 52.5441 54.1372 52.5251C54.1547 52.5082 54.1828 52.3675 54.1996 52.2126C54.2165 52.0577 54.2384 51.8549 54.2484 51.762C54.2762 51.5031 54.251 51.4464 54.0961 51.4211C53.944 51.3961 53.9364 51.3786 53.924 51.0256L53.9157 50.7895L53.4069 50.6687C53.1272 50.6022 52.8569 50.5472 52.8062 50.5464C52.7556 50.5455 52.5855 50.5098 52.4282 50.4668C52.271 50.4239 52.0613 50.3743 51.9624 50.3565C51.8633 50.3388 51.6863 50.3014 51.569 50.2736C51.2105 50.1885 50.6052 50.0692 50.5262 50.0681C50.4388 50.0668 50.4058 50.1354 50.3775 50.3769L50.358 50.5435L50.5098 50.617C50.714 50.7159 50.7203 50.7586 50.5346 50.7856C50.2304 50.8299 50.2234 50.817 50.2234 50.2149C50.2234 49.5855 50.2602 49.6285 49.7146 49.6205C49.0067 49.6101 48.7569 49.5873 48.8313 49.5399C48.8926 49.5009 48.9329 49.4684 49.2388 49.2122C49.3201 49.1443 49.4271 49.079 49.4769 49.0673C49.8644 48.9763 50.1762 47.9302 50.0003 47.3109C49.9386 47.0937 49.6286 46.5621 49.5635 46.5621C49.5486 46.5621 49.4851 46.5184 49.4225 46.465C49.2189 46.2914 48.9289 46.1162 48.845 46.116C48.7998 46.1159 48.7186 46.0872 48.6644 46.0524C48.5684 45.9906 48.2008 45.9673 48.0081 46.0108ZM48.7928 46.6725C49.8545 47.1666 49.7399 48.6724 48.6159 48.9965C47.5282 49.31 46.6275 48.2242 47.1267 47.2012C47.3907 46.66 48.2083 46.4006 48.7928 46.6725ZM48.1463 46.8368C48.1335 46.8494 48.1229 46.8929 48.1229 46.9335C48.1229 46.985 48.0835 47.0316 47.9932 47.0869C47.5554 47.3552 47.6786 47.931 48.1742 47.9327C48.4457 47.9335 48.5543 48.0226 48.4765 48.1805C48.4287 48.2775 48.099 48.344 48.0504 48.2663C47.9614 48.1246 47.9015 48.0827 47.8172 48.1032C47.5953 48.1572 47.7332 48.4897 48.0081 48.5631C48.0825 48.583 48.1105 48.6122 48.123 48.6831C48.1489 48.8288 48.3444 48.8402 48.3739 48.6975C48.388 48.6289 48.4366 48.5701 48.5325 48.5061C48.9559 48.2234 48.8119 47.6774 48.314 47.6774C47.9233 47.6774 47.8804 47.3427 48.2676 47.3145C48.41 47.3042 48.4294 47.3118 48.5106 47.4107C48.6184 47.5419 48.7341 47.5539 48.7791 47.4386C48.8324 47.3028 48.7224 47.1352 48.5282 47.0562C48.4713 47.033 48.4047 46.9734 48.3803 46.9236C48.3369 46.8355 48.2001 46.7847 48.1463 46.8368ZM43.4145 47.7865C43.4432 47.8289 43.4676 47.9113 43.4688 47.9696C43.4715 48.1068 43.5453 48.1865 43.6726 48.1896C44.1357 48.2006 44.4463 48.8148 44.1114 49.0576C43.9613 49.1664 43.725 49.0409 43.725 48.8525C43.725 48.5576 42.9163 48.5885 42.7561 48.8896C42.594 49.1938 42.7984 49.3823 43.3151 49.405C44.3764 49.4514 44.6102 50.8255 43.6039 51.1027C43.4869 51.1349 43.4786 51.1453 43.4758 51.2632C43.471 51.4583 43.4681 51.4669 43.3756 51.55C43.2001 51.708 42.9701 51.581 42.9701 51.3261C42.9701 51.1631 42.9489 51.1455 42.7173 51.115C42.4059 51.0739 42.2017 50.8469 42.2 50.5396C42.1979 50.1755 42.626 50.0848 42.6937 50.4351C42.7466 50.7089 43.4346 50.7334 43.6423 50.4688C43.8736 50.1745 43.6523 49.9082 43.1762 49.9079C42.7487 49.9075 42.4454 49.7466 42.2757 49.4297C42.0501 49.0088 42.313 48.3403 42.7455 48.2349C42.8912 48.1993 42.9701 48.1037 42.9701 47.9628C42.9701 47.7241 43.2875 47.598 43.4145 47.7865ZM51.6346 50.8777C51.752 50.9041 51.9736 50.9475 52.1269 50.9742C52.3961 51.0212 52.644 51.0726 53.0644 51.1685C53.1739 51.1936 53.311 51.214 53.369 51.214C53.4857 51.214 53.5366 51.2825 53.4742 51.3555C53.4197 51.4193 51.2367 51.4293 51.1826 51.366C51.1257 51.2996 51.1198 50.9124 51.1746 50.8483C51.2249 50.7894 51.2493 50.791 51.6346 50.8777Z" fill="#EEA514"/>
<path id="Vector_4" fill-rule="evenodd" clip-rule="evenodd" d="M41.3355 28.049C41.313 28.076 41.2613 28.098 41.2207 28.098C41.18 28.098 41.1284 28.1201 41.1059 28.147C41.0835 28.174 41.044 28.196 41.0182 28.196C40.9925 28.196 40.9094 28.228 40.8336 28.2671C40.6067 28.3842 40.5365 28.4147 40.4418 28.4373C40.3923 28.4491 40.3517 28.4731 40.3517 28.4907C40.3517 28.5084 40.3208 28.5227 40.2829 28.5227C40.2452 28.5227 40.1751 28.5438 40.1271 28.5695C40.0793 28.5952 39.9701 28.6467 39.8844 28.6838C39.7987 28.7211 39.6585 28.7818 39.5729 28.8191C39.4872 28.8562 39.3779 28.9077 39.33 28.9334C39.2822 28.9591 39.2213 28.9802 39.1948 28.9802C39.1681 28.9802 39.128 29.0022 39.1056 29.0292C39.0831 29.0562 39.0315 29.0782 38.9907 29.0782C38.9502 29.0782 38.9 29.0984 38.8793 29.1233C38.8587 29.1481 38.7969 29.1772 38.7422 29.1881C38.6875 29.199 38.6203 29.2303 38.5931 29.2575C38.5658 29.2847 38.5094 29.3068 38.4677 29.3068C38.4262 29.3068 38.3738 29.3289 38.3513 29.3559C38.3289 29.3828 38.2888 29.4049 38.2621 29.4049C38.2143 29.4049 38.1688 29.4248 37.9022 29.5626C37.8264 29.6016 37.7337 29.6336 37.6961 29.6336C37.6586 29.6336 37.6193 29.6557 37.6089 29.6826C37.5986 29.7096 37.5565 29.7316 37.5156 29.7316C37.4746 29.7316 37.4228 29.7537 37.4003 29.7806C37.3778 29.8076 37.3281 29.8298 37.2898 29.8299C37.2514 29.83 37.1757 29.8593 37.1216 29.895C37.0674 29.9307 36.9992 29.96 36.9698 29.9601C36.9405 29.9603 36.8981 29.9824 36.8756 30.0094C36.8532 30.0364 36.8016 30.0584 36.7609 30.0584C36.7202 30.0584 36.6685 30.0805 36.6461 30.1074C36.6236 30.1344 36.5849 30.1564 36.5599 30.1564C36.5351 30.1564 36.4596 30.1858 36.3923 30.2217C36.3251 30.2576 36.2457 30.287 36.2161 30.287C36.1865 30.287 36.1439 30.3091 36.1214 30.336C36.0989 30.363 36.0473 30.3851 36.0067 30.3851C35.966 30.3851 35.9143 30.4071 35.8918 30.4341C35.8694 30.461 35.8307 30.4831 35.8057 30.4831C35.7808 30.4831 35.7054 30.5125 35.6381 30.5485C35.5707 30.5844 35.4914 30.6138 35.4619 30.6138C35.4323 30.6138 35.3896 30.6359 35.3672 30.6628C35.3447 30.6898 35.3046 30.7118 35.2781 30.7118C35.2515 30.7118 35.1905 30.732 35.1427 30.7568C34.9692 30.8464 34.7526 30.9406 34.7199 30.9406C34.7016 30.9406 34.6682 30.9626 34.6457 30.9896C34.6232 31.0166 34.5708 31.0386 34.5293 31.0386C34.4877 31.0386 34.4315 31.0607 34.4045 31.0876C34.3774 31.1146 34.3356 31.1366 34.3115 31.1366C34.2874 31.1366 34.2126 31.166 34.1452 31.2019C34.078 31.2378 34.0026 31.2672 33.9776 31.2672C33.9527 31.2672 33.9139 31.2893 33.8915 31.3162C33.869 31.3432 33.8174 31.3653 33.7767 31.3653C33.7361 31.3653 33.6845 31.3873 33.6619 31.4143C33.6394 31.4412 33.5969 31.4633 33.5673 31.4633C33.5376 31.4633 33.4583 31.4927 33.391 31.5287C33.3238 31.5646 33.2483 31.594 33.2234 31.594C33.1985 31.594 33.1597 31.6161 33.1372 31.643C33.1148 31.67 33.0632 31.692 33.0225 31.692C32.9818 31.692 32.9301 31.7141 32.9078 31.741C32.8852 31.768 32.8447 31.79 32.8175 31.79C32.7904 31.79 32.6557 31.8425 32.5182 31.9066C32.3807 31.9705 32.224 32.042 32.1699 32.0652C32.1158 32.0885 31.9978 32.1402 31.9075 32.1803C31.6088 32.3131 31.515 32.3539 31.4156 32.3942C31.3615 32.4163 31.2434 32.467 31.1533 32.5071C31.0632 32.5471 30.9451 32.5991 30.891 32.6226C30.8369 32.646 30.7188 32.6972 30.6286 32.7363C30.5384 32.7754 30.4254 32.8284 30.3776 32.8542C30.3297 32.8799 30.2689 32.901 30.2423 32.901C30.2156 32.901 30.1755 32.923 30.1532 32.95C30.1306 32.9769 30.0783 32.999 30.0367 32.999C29.995 32.999 29.9389 33.021 29.9119 33.048C29.8848 33.075 29.8431 33.097 29.8193 33.0971C29.7955 33.0973 29.7317 33.1267 29.6776 33.1623C29.6235 33.198 29.5479 33.2274 29.5095 33.2275C29.4711 33.2276 29.4213 33.2497 29.3988 33.2766C29.3765 33.3036 29.3248 33.3256 29.2841 33.3256C29.2434 33.3256 29.1917 33.3477 29.1694 33.3747C29.1469 33.4016 29.1044 33.4238 29.0752 33.4239C29.0458 33.424 28.9775 33.4533 28.9234 33.4891C28.8693 33.5247 28.8002 33.554 28.7699 33.5542C28.7397 33.5543 28.6954 33.5736 28.6716 33.597C28.6477 33.6206 28.6025 33.6495 28.5709 33.6614C28.5177 33.6815 28.5134 33.7683 28.5134 34.844V36.0049H28.8578H29.2021V36.3986C29.2021 36.9535 29.2211 36.9851 29.5555 36.9851H29.8088L29.8008 40.2932C29.7964 42.1127 29.789 44.0609 29.7844 44.6225C29.7798 45.184 29.7834 45.6472 29.7923 45.6517C29.8306 45.6706 29.9564 45.8734 29.9564 45.9159C29.9564 45.9414 29.9785 45.9804 30.0056 46.0029C30.0326 46.0253 30.0548 46.0652 30.0548 46.0917C30.0548 46.1182 30.0757 46.1788 30.1014 46.2266C30.1271 46.2743 30.1796 46.3867 30.2182 46.4767C30.5196 47.1785 30.6452 47.4405 30.6802 47.4405C30.6969 47.4405 30.7106 47.4602 30.7106 47.4842C30.7106 47.5515 30.9087 47.7672 30.9706 47.7672C31.0007 47.7672 31.0426 47.7844 31.0638 47.8055C31.1363 47.8777 31.7599 47.5761 31.7599 47.4686C31.7599 47.4532 31.7749 47.4405 31.7931 47.4405C31.8113 47.4405 31.8988 47.3897 31.9874 47.3276C32.2683 47.1308 32.651 47.1362 32.6921 47.3375C32.735 47.5475 32.7206 47.7194 32.6507 47.8325C32.6119 47.8955 32.58 47.9936 32.5799 48.0507C32.5798 48.1078 32.5607 48.174 32.5375 48.1978C32.4655 48.2713 32.3615 48.496 32.3358 48.633C32.3224 48.7048 32.3014 48.7709 32.2891 48.78C32.2326 48.8215 32.1534 48.9816 32.1534 49.0543C32.1534 49.0986 32.1276 49.1606 32.0961 49.1919C31.9969 49.2908 32.0131 49.906 32.1186 50.0462C32.2501 50.2207 32.6771 50.1427 32.7312 49.9342C32.7517 49.8553 32.8369 49.7688 32.9489 49.7133C32.9894 49.6932 33.0487 49.6216 33.0807 49.5541C33.1126 49.4866 33.174 49.418 33.2168 49.4018C33.2597 49.3855 33.3054 49.3551 33.3184 49.3343C33.446 49.1285 33.7932 49.091 33.7932 49.283C33.7932 49.3218 33.8185 49.3897 33.8494 49.4337C33.8926 49.4953 33.9033 49.5678 33.8957 49.7497C33.8882 49.93 33.8995 50.0088 33.9439 50.0837C33.992 50.1648 33.9953 50.1963 33.9631 50.2666C33.917 50.3674 33.9127 50.6064 33.9559 50.6744C33.9774 50.7083 33.9675 50.74 33.9225 50.7818C33.8875 50.8144 33.8585 50.8662 33.8582 50.897C33.8577 50.9558 33.7804 51.2013 33.7274 51.3122C33.7102 51.3482 33.681 51.4144 33.6627 51.4593C33.6444 51.5042 33.6171 51.563 33.6019 51.59C33.5194 51.738 33.4652 51.8621 33.4652 51.903C33.4652 51.9285 33.4456 51.9493 33.4218 51.9493C33.398 51.9493 33.328 52.0102 33.2661 52.0845C33.1175 52.2631 32.869 52.5049 32.8341 52.5049C32.8187 52.5049 32.7727 52.5408 32.7318 52.5848C32.6648 52.6568 32.6348 52.664 32.43 52.6566C32.1452 52.6461 32.104 52.6219 32.0618 52.4394C32.0431 52.3586 31.9889 52.185 31.9412 52.0535L31.8546 51.8147L31.9467 51.7438C32.124 51.607 32.8085 50.9223 32.914 50.7759C32.9726 50.6946 33.0441 50.6046 33.0729 50.576C33.1539 50.4951 33.3668 50.1335 33.3668 50.0766C33.3668 50.0053 33.2997 49.9714 33.266 50.0257C33.2507 50.0505 33.2233 50.0927 33.2051 50.1197C33.187 50.1466 33.1163 50.2518 33.0481 50.3532C32.9261 50.5347 32.4435 51.0786 32.2862 51.2116C32.2421 51.249 32.1388 51.3402 32.0568 51.4143C31.8335 51.6157 31.7793 51.622 31.7347 51.4515C31.6523 51.1374 31.5929 50.9473 31.5466 50.8499C31.5196 50.7933 31.4976 50.7246 31.4976 50.6974C31.4976 50.6701 31.4771 50.6061 31.4521 50.5553C31.269 50.1835 31.0482 49.3651 31.1123 49.2962C31.1743 49.2296 31.3009 49.0469 31.3009 49.024C31.3009 49.0129 31.371 48.9132 31.4567 48.8023C31.5423 48.6915 31.6398 48.5493 31.6732 48.4863C31.7067 48.4232 31.7602 48.3422 31.7921 48.3063C31.8472 48.2445 31.9736 48.0587 32.0928 47.8648C32.1258 47.811 32.1361 47.7595 32.1194 47.7325C32.0874 47.681 31.9376 47.8257 31.7769 48.0635C31.6303 48.2804 31.375 48.6261 31.3182 48.6848C31.2907 48.7132 31.268 48.7524 31.268 48.7719C31.268 48.7914 31.257 48.8122 31.2434 48.8182C31.2104 48.8329 31.0887 49.0106 31.0609 49.0851C31.0315 49.1635 30.9663 49.1396 30.9364 49.0394C30.9233 48.9957 30.8807 48.8789 30.8416 48.7801C30.8024 48.6813 30.7571 48.5459 30.7407 48.4793C30.7244 48.4127 30.6897 48.3098 30.6639 48.2506C30.6379 48.1914 30.5833 48.0548 30.5424 47.947C30.5014 47.8391 30.4562 47.737 30.4416 47.7198C30.4273 47.7028 30.4155 47.6583 30.4155 47.6209C30.4155 47.5836 30.391 47.5183 30.3612 47.4759C30.3313 47.4333 30.2975 47.353 30.2862 47.2971C30.2716 47.2252 30.2442 47.1923 30.1929 47.185C30.1086 47.1729 30.0994 47.2304 30.1705 47.3242C30.1971 47.3591 30.2192 47.4179 30.2197 47.4549C30.2203 47.4919 30.2424 47.5507 30.2689 47.5856C30.2954 47.6204 30.3171 47.6832 30.3171 47.725C30.3171 47.7666 30.3299 47.8263 30.3455 47.8575C30.3763 47.9192 30.428 48.0596 30.5047 48.29C30.5317 48.3709 30.5742 48.4834 30.5993 48.54C30.6245 48.5966 30.6454 48.6701 30.646 48.7033C30.6466 48.7365 30.6688 48.7923 30.6952 48.8272C30.7217 48.8621 30.7434 48.9308 30.7434 48.9801C30.7434 49.0292 30.7656 49.0916 30.7926 49.1185C30.8197 49.1455 30.8418 49.2054 30.8418 49.2516C30.8418 49.2979 30.8713 49.3907 30.9073 49.4577C31.0302 49.6861 30.9906 49.7127 30.7485 49.5643C30.6605 49.5104 30.5662 49.4663 30.5388 49.4663C30.5115 49.4663 30.4707 49.4442 30.4483 49.4173C30.4258 49.3903 30.3808 49.3682 30.3482 49.3682C30.3156 49.3682 30.2695 49.3489 30.2456 49.3254C30.2218 49.3018 30.1286 49.2467 30.0383 49.2028C29.9482 49.1591 29.8632 49.1059 29.8495 49.0849C29.836 49.0638 29.7816 49.0372 29.7289 49.0255C29.6761 49.014 29.615 48.9832 29.5931 48.9568C29.5157 48.8638 29.2586 48.7107 29.2293 48.7399C29.1202 48.8487 29.6488 49.2057 30.7678 49.7786C31.0697 49.9331 31.0788 49.9468 31.2372 50.4791C31.2772 50.6138 31.3301 50.7704 31.3547 50.8271C31.3792 50.8838 31.3992 50.9674 31.3992 51.013C31.3992 51.0587 31.4129 51.1044 31.4295 51.1147C31.4462 51.1249 31.4693 51.1809 31.4811 51.2391C31.5024 51.3443 31.5933 51.6031 31.6836 51.8153C31.7505 51.9729 31.7088 51.9944 31.4511 51.9349C31.3301 51.907 31.18 51.884 31.1174 51.884C31.0548 51.884 30.9535 51.8632 30.8922 51.8377C30.831 51.8121 30.695 51.7809 30.59 51.7681C30.4849 51.7554 30.3593 51.7249 30.3106 51.7001C30.2619 51.6755 30.1861 51.6553 30.1423 51.6553C30.0986 51.6553 30.0444 51.6332 30.0219 51.6063C29.9994 51.5793 29.9569 51.5573 29.9272 51.5573C29.8976 51.5573 29.8183 51.5279 29.751 51.492C29.6079 51.4155 29.53 51.4084 29.53 51.4719C29.53 51.5293 29.6311 51.5953 29.8588 51.6864C29.9575 51.726 30.0826 51.7792 30.1367 51.8048C30.1908 51.8303 30.2867 51.8608 30.3499 51.8725C30.413 51.8843 30.4938 51.9138 30.5293 51.938C30.5649 51.9622 30.6345 51.9821 30.6839 51.9821C30.7335 51.9821 30.8371 52.002 30.9144 52.0265C30.9917 52.0509 31.1951 52.089 31.3664 52.1111C31.7051 52.1547 31.8256 52.2076 31.8256 52.3126C31.8256 52.3499 31.8499 52.4214 31.8797 52.4717C31.9809 52.6425 31.9473 52.6551 31.4178 52.6466C31.0103 52.6401 30.9211 52.6294 30.8321 52.5761C30.6013 52.4377 30.4155 52.4647 30.4155 52.6362C30.4155 52.8051 30.2252 52.7134 30.1714 52.5187C30.1379 52.3982 30.1155 52.3803 29.7989 52.221C29.5131 52.0771 29.219 51.8963 28.8835 51.658C28.8434 51.6296 28.8102 51.5962 28.8097 51.5839C28.8091 51.5715 28.7675 51.5165 28.7173 51.4617C28.294 51 28.3912 50.4593 28.8639 50.6463C29.2829 50.8121 29.2511 50.7115 28.647 49.9571C28.5011 49.7749 28.4529 49.7179 28.1321 49.3493C27.9063 49.0899 27.4268 48.5138 27.3083 48.3598C27.1482 48.1517 26.8009 47.6672 26.7263 47.5481C26.7082 47.5194 26.6455 47.4212 26.5869 47.3301C26.5283 47.2389 26.4803 47.1455 26.4803 47.1226C26.4803 47.0998 26.4658 47.0811 26.4481 47.0811C26.4305 47.0811 26.4069 47.0449 26.3957 47.0007C26.3846 46.9566 26.3548 46.9033 26.3295 46.8824C26.3042 46.8615 26.2836 46.8178 26.2836 46.7853C26.2836 46.7528 26.2639 46.7068 26.2399 46.6829C26.1812 46.6244 26.141 46.4603 26.1854 46.4603C26.2042 46.4603 26.2285 46.5044 26.2393 46.5583C26.2501 46.6122 26.2726 46.6563 26.2893 46.6563C26.3061 46.6563 26.3352 46.7004 26.354 46.7543C26.373 46.8082 26.4003 46.8523 26.4148 46.8523C26.4293 46.8523 26.4578 46.8928 26.4781 46.9423C26.5278 47.0627 26.599 47.1834 26.6349 47.208C26.651 47.219 26.6994 47.2869 26.7425 47.3589C26.7857 47.4306 26.8661 47.5504 26.9212 47.6246C26.9763 47.699 27.0435 47.7921 27.0706 47.8317C27.0976 47.8712 27.1493 47.9386 27.1853 47.9813C27.2215 48.0239 27.3174 48.1424 27.3986 48.2445C27.5485 48.4331 27.8992 48.8494 27.9888 48.945C28.0159 48.974 28.0681 49.0331 28.1049 49.0768C28.1418 49.1203 28.2377 49.23 28.318 49.3208C28.3984 49.4116 28.5306 49.565 28.6118 49.6619C28.693 49.7587 28.8158 49.9034 28.8847 49.9834C28.9535 50.0635 29.0347 50.1672 29.065 50.214C29.0953 50.2608 29.1903 50.3918 29.2759 50.5052C29.3616 50.6185 29.4322 50.7289 29.4327 50.7503C29.4345 50.8177 29.5715 50.8911 29.776 50.9344C29.8842 50.9571 30.0055 50.9834 30.0454 50.9924C30.1346 51.0128 30.3171 50.8452 30.3171 50.7429C30.3171 50.4864 29.7899 49.8882 28.9195 49.1571C28.7561 49.0198 28.6455 48.9034 28.4303 48.6417C28.0767 48.2121 28.3141 47.7871 28.7724 48.0292C28.8013 48.0444 28.9136 48.0995 29.0218 48.1515C29.3564 48.3123 29.5769 48.4297 29.6329 48.4768C29.6622 48.5016 29.7406 48.5254 29.8069 48.5296C29.8731 48.5339 29.9376 48.5529 29.95 48.572C29.9863 48.6273 30.1411 48.6523 30.2328 48.6175C30.3803 48.5617 30.3526 48.3437 30.1456 47.9305C29.8567 47.3536 29.705 47.3504 29.7856 47.9228C29.8212 48.1757 29.7719 48.2497 29.6526 48.1222C29.5881 48.0533 28.53 47.2312 28.4237 47.1675C28.4013 47.154 28.3146 47.1732 28.231 47.2101C28.0619 47.2846 27.9784 47.2965 28.0549 47.2352C28.1382 47.1683 28.2276 47.009 28.1941 46.9871C27.908 46.8003 26.5097 45.5104 26.4148 45.3459C26.3877 45.2991 26.2962 45.1594 26.2116 45.0355C26.1269 44.9117 26.0474 44.7662 26.0349 44.7123C25.974 44.4498 25.8822 44.4766 25.727 44.8021C25.5706 45.13 25.2342 46.1248 25.2342 46.2591C25.2342 46.2915 25.211 46.3858 25.1827 46.4686C25.1192 46.6541 25.1544 46.7392 25.3076 46.7717C25.5718 46.8276 25.5757 46.9504 25.3135 46.9504C25.0939 46.9504 25.0868 46.9631 25.0388 47.4336C24.9475 48.3314 25.1217 49.6684 25.4123 50.2994C25.437 50.3533 25.4741 50.4398 25.4947 50.4918L25.5321 50.5863L25.7661 50.5646C25.8947 50.5527 26.0782 50.5202 26.1737 50.4925C26.41 50.4242 26.4981 50.4675 26.3516 50.5801C26.2952 50.6234 26.1835 50.7103 26.1032 50.7731C26.0228 50.8361 25.9139 50.9206 25.8611 50.9609C25.7305 51.0608 25.8734 51.3856 26.2349 51.8108C26.2768 51.86 26.3709 51.9707 26.4439 52.0566C26.5171 52.1423 26.6473 52.2731 26.7335 52.3469C26.8197 52.4208 26.8951 52.494 26.9011 52.5094C26.9071 52.5248 26.9308 52.5375 26.9535 52.5375C26.9956 52.5375 27.1034 52.6392 27.1034 52.6787C27.1034 52.6907 27.0186 52.6992 26.9148 52.6975C26.7213 52.6942 26.5787 52.635 26.5787 52.5578C26.5787 52.5339 26.5455 52.4784 26.5049 52.4345C26.4413 52.3658 26.304 52.2063 25.9352 51.7729C25.8908 51.7208 25.794 51.5922 25.72 51.4871C25.6459 51.3819 25.5728 51.2959 25.5574 51.2959C25.5419 51.2959 25.5294 51.279 25.5294 51.2584C25.5294 51.2378 25.4803 51.1607 25.4203 51.0869C25.3604 51.0131 25.3019 50.9271 25.2902 50.8956C25.2785 50.8643 25.2554 50.8385 25.2388 50.8385C25.2222 50.8385 25.1993 50.8018 25.1879 50.7568C25.1766 50.7119 25.1524 50.6751 25.1344 50.6751C25.1162 50.6751 25.087 50.642 25.0694 50.6016C25.0351 50.5224 25.0096 50.4808 24.855 50.252C24.7998 50.1703 24.7449 50.0777 24.7331 50.0462C24.7213 50.0147 24.6963 49.989 24.6778 49.989C24.6591 49.989 24.6435 49.9706 24.643 49.9482C24.6425 49.9257 24.5766 49.8044 24.4964 49.6786C24.4163 49.5528 24.3282 49.4057 24.3006 49.3518C24.2731 49.2979 24.2212 49.2097 24.1853 49.1558C24.1494 49.1019 24.1114 49.0357 24.1008 49.0088C24.0903 48.9818 24.0687 48.9377 24.0528 48.9107C24.0368 48.8838 23.9554 48.7294 23.8719 48.5677C23.7884 48.4059 23.7078 48.2516 23.6928 48.2246C23.587 48.0349 23.201 47.1932 23.201 47.1523C23.201 47.1355 23.1789 47.1035 23.1518 47.0811C23.1247 47.0587 23.1026 47.0087 23.1026 46.97C23.1026 46.9312 23.0801 46.8674 23.0524 46.8282C23.0249 46.7889 22.966 46.6607 22.9216 46.5432C22.8772 46.4257 22.8278 46.3039 22.8117 46.2724C22.7955 46.2409 22.7512 46.1307 22.713 46.0274C22.5557 45.6019 22.5021 45.4605 22.4747 45.3985C22.4588 45.3624 22.4324 45.2889 22.4159 45.235C22.3996 45.1811 22.3543 45.0561 22.3155 44.9574C22.2063 44.6795 22.1776 44.5641 22.1979 44.4836C22.2131 44.4232 22.201 44.4064 22.1323 44.3934C22.0032 44.3688 21.9551 44.4974 22.0491 44.6164C22.0875 44.665 22.1188 44.7441 22.1188 44.7921C22.1188 44.8402 22.1406 44.908 22.167 44.9429C22.1935 44.9778 22.2156 45.039 22.2162 45.079C22.2168 45.119 22.2454 45.2146 22.2798 45.2914C22.3142 45.3682 22.3691 45.5193 22.4017 45.6271C22.4344 45.7349 22.48 45.8522 22.5031 45.8876C22.5262 45.9231 22.5452 45.9782 22.5452 46.0102C22.5452 46.0423 22.5747 46.1233 22.6107 46.1903C22.6469 46.2575 22.6764 46.3374 22.6764 46.368C22.6764 46.3986 22.6894 46.4318 22.7055 46.4418C22.7215 46.4516 22.7445 46.5002 22.7566 46.5498C22.7687 46.5994 22.806 46.6988 22.8394 46.7707C23.0392 47.1992 23.1026 47.3424 23.1026 47.3638C23.1026 47.4639 24.025 49.2574 24.3183 49.7276C24.3352 49.7546 24.3646 49.8131 24.3837 49.8576C24.4028 49.9022 24.4295 49.9463 24.443 49.9556C24.4565 49.9651 24.5249 50.0682 24.595 50.185C24.6651 50.3019 24.7684 50.4636 24.8246 50.5445C24.8808 50.6253 24.9366 50.7136 24.9488 50.7405C24.9609 50.7675 25.0523 50.8998 25.1521 51.0346C25.2518 51.1694 25.3464 51.309 25.3622 51.3449C25.3781 51.3808 25.4366 51.4543 25.4921 51.5083C25.5477 51.5622 25.5936 51.6187 25.594 51.6338C25.5958 51.6882 25.9275 52.0807 26.2426 52.4011C26.3733 52.5342 26.4803 52.6523 26.4803 52.6637C26.4802 52.6752 25.8648 52.6893 25.1126 52.6952C24.3235 52.7013 23.7202 52.719 23.6862 52.7372C23.597 52.7847 23.6073 52.9575 23.7011 52.9876C23.7417 53.0006 31.6624 53.0039 41.3026 52.995L58.8305 52.9786L58.8407 52.8723C58.8554 52.722 58.7748 52.7009 58.1847 52.7009H57.6908L57.711 52.5752C57.74 52.3942 57.5571 52.2335 57.1755 52.1047C57.0229 52.0532 56.8827 51.9992 56.864 51.9846C56.8454 51.9702 56.7429 51.9497 56.6363 51.9393C56.373 51.9136 56.3249 51.862 56.4462 51.7354C56.4971 51.6824 56.6385 51.5106 56.7605 51.3536C57.0377 50.997 57.0157 51.0071 57.1732 51.1641C57.246 51.2366 57.3331 51.2959 57.3668 51.2959C57.4005 51.2959 57.4659 51.3257 57.5122 51.362C58.0029 51.7466 58.7239 51.7108 58.3465 51.3208C58.214 51.1838 57.7817 51.0019 57.5886 51.0019C57.5604 51.0019 57.5223 50.9736 57.5038 50.9391C57.4745 50.8847 57.4543 50.8807 57.352 50.9087C57.2872 50.9266 57.2133 50.9333 57.1878 50.9236C57.1377 50.9043 57.1233 50.8058 57.1706 50.8058C57.1865 50.8058 57.2089 50.7801 57.2203 50.7486C57.3671 50.3439 57.5794 50.1986 57.8302 50.3309C58.1593 50.5045 58.2822 50.5518 58.4766 50.5798C58.7971 50.626 58.9144 50.5589 58.8362 50.3743C58.7816 50.2454 58.5789 50.1622 58.2518 50.1344C57.7555 50.0921 57.676 50.0579 57.7958 49.9384C57.8129 49.9213 57.866 49.8338 57.914 49.7439C58.0118 49.5607 58.2861 49.1454 58.3255 49.1211C58.3396 49.1124 58.3777 49.1334 58.4104 49.1676C58.4643 49.2239 58.6537 49.319 58.9361 49.4314C59.2312 49.5487 59.6667 49.4242 59.6667 49.2224C59.6667 48.9821 59.2599 48.8828 58.7321 48.9944C58.6058 49.0211 58.4804 49.0463 58.4534 49.0504C58.3812 49.0613 58.3742 48.929 58.4431 48.8603C58.5041 48.7996 58.5591 48.7146 58.6125 48.599C58.6294 48.5624 58.667 48.5128 58.6959 48.4889C58.7248 48.4649 58.7485 48.4173 58.7485 48.3829C58.7485 48.2818 58.8756 48.2572 59.0049 48.3332C59.4861 48.6161 60.4172 48.235 60.2586 47.8203L60.2226 47.7263L59.9692 47.7411C59.8299 47.7492 59.6864 47.772 59.6502 47.7916C59.4975 47.8748 59.3015 47.9633 59.27 47.9633C59.2513 47.9633 59.1876 48 59.1285 48.045C58.9671 48.1676 58.8282 48.0809 58.9545 47.9364C59.0171 47.8649 59.3716 47.125 59.3716 47.0659C59.3716 46.973 59.5278 46.8902 59.6676 46.9089C60.1768 46.9769 60.8977 46.548 60.6645 46.3156C60.5562 46.2077 60.1931 46.3344 59.8297 46.6069C59.7299 46.6817 59.6303 46.7368 59.6083 46.7296C59.5516 46.7107 59.5586 46.5073 59.6179 46.4482C59.6452 46.421 59.6768 46.3501 59.6881 46.2907C59.6994 46.2313 59.7238 46.1634 59.7424 46.14C59.7929 46.076 59.8288 45.8021 59.7848 45.8166C59.765 45.8231 59.7405 45.8788 59.7302 45.9403C59.72 46.0016 59.6949 46.0813 59.6745 46.1172C59.6542 46.1532 59.6286 46.2378 59.6178 46.3051C59.607 46.3725 59.5853 46.4277 59.5697 46.4277C59.5541 46.4277 59.5313 46.4865 59.5192 46.5583C59.5023 46.6575 59.4819 46.689 59.4343 46.689C59.3846 46.689 59.3716 46.7125 59.3716 46.8015C59.3716 46.8632 59.3587 46.9218 59.3429 46.9315C59.3272 46.9412 59.2229 47.1368 59.1111 47.3663C58.7882 48.0295 58.7243 48.1042 58.7394 47.7999C58.7598 47.3905 58.6167 46.6882 58.504 46.6451C58.4358 46.6189 58.3068 46.7636 58.2602 46.9189C58.1918 47.146 58.375 47.6699 58.6228 47.9563C58.7209 48.0696 58.7395 48.1551 58.6791 48.2154C58.6368 48.2574 58.5912 48.3367 58.4724 48.5742C58.383 48.7531 58.2631 48.865 58.2139 48.8159C58.1972 48.7992 58.202 48.7554 58.2254 48.7119C58.2627 48.6422 58.2244 48.0223 58.1706 47.8274C58.1357 47.7006 58.0009 47.6595 57.9118 47.7484C57.7359 47.9236 57.8304 48.5177 58.0804 48.8087C58.2324 48.9857 58.2222 49.0553 58.0099 49.2843C57.9112 49.391 57.8302 49.4895 57.8302 49.5033C57.8302 49.5444 57.6778 49.6954 57.657 49.6747C57.6464 49.6641 57.6516 49.6194 57.6684 49.5752C57.7793 49.2843 57.6907 48.6052 57.5287 48.5063C57.4365 48.4498 57.2541 48.559 57.1717 48.72C57.0433 48.9708 57.157 49.5261 57.4048 49.8583C57.4825 49.9626 57.5015 50.087 57.4397 50.087C57.4259 50.087 57.3755 50.1642 57.3278 50.2585C57.2245 50.4625 57.1636 50.5445 57.115 50.5445C57.0954 50.5445 57.0629 50.5702 57.0428 50.6016C56.9983 50.6715 57.0296 50.3369 57.0756 50.2513C57.1345 50.1417 57.0411 49.6497 56.9228 49.4453C56.6014 48.8902 56.3333 49.6672 56.6354 50.2782C56.6974 50.4036 56.7481 50.5284 56.7481 50.5556C56.7481 50.5828 56.7857 50.6344 56.8316 50.6704C56.9177 50.7379 56.8798 50.9692 56.7826 50.9692C56.7636 50.9692 56.7478 50.9875 56.7476 51.0101C56.7472 51.0325 56.714 51.082 56.6737 51.1201C56.6334 51.1581 56.5487 51.2647 56.4857 51.3568C56.4226 51.4491 56.3536 51.5246 56.3324 51.5246C56.3112 51.5246 56.2871 51.5504 56.2788 51.5818C56.2669 51.6272 56.2631 51.6247 56.26 51.5695C56.2579 51.5312 56.2803 51.443 56.3097 51.3735C56.3767 51.2152 56.3525 50.4473 56.2759 50.2945C56.25 50.2433 56.2133 50.161 56.1941 50.1115C56.1333 49.955 55.9188 50.0151 55.8134 50.2181C55.6819 50.4715 55.8634 51.3963 56.0924 51.6391C56.178 51.7299 56.1632 51.7651 55.9119 52.0673C55.584 52.4619 55.3972 52.6066 55.4967 52.3891C55.6058 52.1504 55.4974 51.2926 55.3403 51.151C55.0386 50.879 54.7933 52.0986 55.0738 52.4766C55.1839 52.6248 55.1252 52.67 54.8339 52.6615C54.7054 52.6577 54.5781 52.6613 54.551 52.6695C54.4463 52.7015 54.4426 51.8643 54.5467 51.6941C54.8925 51.129 54.9018 50.7731 54.5705 50.7731C54.5117 50.7731 54.4549 50.7645 54.4443 50.754C54.424 50.7338 54.7466 50.1839 54.941 49.9074C55.0042 49.8174 55.151 49.6042 55.2674 49.4336C55.3838 49.2629 55.5284 49.0585 55.5888 48.9796C55.6493 48.9007 55.6987 48.8174 55.6987 48.7945C55.6987 48.7716 55.7101 48.7479 55.724 48.742C55.7379 48.736 55.806 48.6429 55.8752 48.5351C55.9446 48.4273 56.0291 48.2992 56.0631 48.2505C56.0972 48.2018 56.1251 48.1544 56.1251 48.1452C56.1251 48.136 56.1926 48.0146 56.2752 47.8753C56.4893 47.5146 56.6785 47.0935 56.9105 46.4603C57.0109 46.1865 57.0934 45.1207 57.0142 45.1207C56.9941 45.1207 56.9774 45.095 56.9772 45.0635C56.9764 44.9759 56.9205 44.9031 56.8832 44.9413C56.8628 44.9622 56.868 45.0202 56.8974 45.1044C56.9742 45.3234 56.8439 46.2308 56.6973 46.498C56.6711 46.5457 56.6497 46.6118 56.6496 46.645C56.6495 46.6782 56.6199 46.7494 56.5842 46.8033C56.5484 46.8572 56.5189 46.9179 56.5187 46.9381C56.5185 46.9794 56.4292 47.1732 56.2872 47.4405C56.2347 47.5393 56.1915 47.6373 56.1911 47.6583C56.1909 47.6793 56.1793 47.7013 56.1654 47.7073C56.1515 47.7133 56.0751 47.8285 55.9955 47.9633C55.9159 48.098 55.8018 48.278 55.742 48.3632C55.6821 48.4483 55.6332 48.5317 55.6332 48.5483C55.6332 48.565 55.6221 48.5835 55.6086 48.5895C55.5951 48.5955 55.5397 48.6666 55.4856 48.7474C55.4315 48.8283 55.3757 48.9092 55.3617 48.9272C55.3197 48.9807 55.0959 49.2908 55.0429 49.3687C55.0159 49.4086 54.9679 49.4748 54.9363 49.516C54.9047 49.5572 54.8789 49.6037 54.8789 49.6193C54.8789 49.635 54.8531 49.6714 54.8216 49.7003C54.7334 49.781 54.6494 49.8999 54.6494 49.9439C54.6494 49.9657 54.6384 49.9885 54.6248 49.9945C54.5855 50.0119 54.4198 50.2664 54.4198 50.3094C54.4198 50.3308 54.4053 50.3484 54.3876 50.3484C54.37 50.3484 54.3463 50.3852 54.335 50.43C54.3235 50.475 54.3025 50.5118 54.288 50.5118C54.2736 50.5118 54.2287 50.5796 54.1884 50.6627L54.115 50.8137L53.9335 50.7925C53.8336 50.7807 53.7362 50.7584 53.7169 50.7427C53.6977 50.7272 53.5676 50.7038 53.4278 50.6909L53.1737 50.6675V50.5611C53.1737 50.4532 53.3248 50.2959 54.0253 49.6743C54.5224 49.2333 54.8442 48.8799 54.9556 48.6526C55.1508 48.2541 54.7544 47.991 54.2805 48.2041C54.2218 48.2305 54.1407 48.2616 54.1001 48.2732C54.0595 48.2849 54.0263 48.3082 54.0263 48.3248C54.0263 48.3416 54.0065 48.3553 53.9823 48.3553C53.9582 48.3553 53.8143 48.4362 53.6627 48.5351C53.5109 48.6338 53.3703 48.7147 53.35 48.7147C53.3295 48.7147 53.2945 48.7368 53.2721 48.7637C53.19 48.8622 53.1737 48.805 53.1737 48.4186C53.1737 48.0216 53.1912 47.9433 53.3093 47.8139C53.4 47.7143 53.7754 46.9674 53.8573 46.7236C54.0777 46.0667 53.7399 45.4084 53.3553 45.7448C53.2914 45.8006 53.2393 45.8732 53.2393 45.9063C53.2393 45.9393 53.2245 45.9754 53.2065 45.9866C53.1847 45.9999 53.1723 44.5945 53.1692 41.7981C53.1667 39.4834 53.1644 37.4572 53.1639 37.2954L53.1632 37.0014L53.3898 36.9926C53.7177 36.9797 53.7312 36.9571 53.7312 36.426V36.0049H54.0744C54.5194 36.0049 54.4854 36.1017 54.4854 34.8381C54.4854 33.7519 54.4731 33.6524 54.3387 33.6524C54.3142 33.6524 54.2892 33.6402 54.2832 33.6253C54.2703 33.5932 53.916 33.4237 53.862 33.4237C53.8416 33.4237 53.8027 33.4016 53.7757 33.3747C53.7486 33.3477 53.6924 33.3256 53.6509 33.3256C53.6093 33.3256 53.5569 33.3036 53.5344 33.2766C53.5119 33.2497 53.4696 33.2276 53.4402 33.2275C53.4108 33.2274 53.3426 33.198 53.2885 33.1623C53.2344 33.1267 53.1569 33.0973 53.1163 33.0971C53.0757 33.097 53.0425 33.0826 53.0425 33.0649C53.0425 33.0473 53.0019 33.0233 52.9524 33.0115C52.8577 32.9891 52.7875 32.9584 52.5606 32.8413C52.4848 32.8022 52.4017 32.7702 52.376 32.7702C52.3502 32.7702 52.3107 32.7482 52.2883 32.7212C52.2658 32.6943 52.2153 32.6722 52.1761 32.6722C52.1368 32.6722 52.0906 32.6594 52.0735 32.6436C52.0564 32.6279 51.9465 32.5747 51.8292 32.5254C51.712 32.4762 51.5644 32.413 51.5013 32.3851C51.4381 32.3572 51.3348 32.3125 51.2717 32.2857C51.2086 32.2588 51.1032 32.2099 51.0377 32.1769C50.9722 32.1438 50.8964 32.1168 50.8696 32.1168C50.8427 32.1168 50.8023 32.0948 50.7798 32.0678C50.7573 32.0409 50.7057 32.0188 50.6651 32.0188C50.6244 32.0188 50.5727 31.9967 50.5502 31.9698C50.5279 31.9428 50.4956 31.9208 50.4789 31.9208C50.444 31.9208 50.1857 31.8128 50.0475 31.7405C49.9965 31.7138 49.9282 31.692 49.8958 31.692C49.8634 31.692 49.8185 31.67 49.796 31.643C49.7735 31.6161 49.7402 31.594 49.7219 31.594C49.7034 31.594 49.6204 31.5625 49.5373 31.524C49.4542 31.4856 49.3419 31.4356 49.2878 31.4132C49.063 31.3199 48.8562 31.2273 48.7744 31.1833C48.7265 31.1576 48.6657 31.1366 48.6391 31.1366C48.6124 31.1366 48.5723 31.1146 48.5499 31.0876C48.5274 31.0607 48.4758 31.0386 48.4351 31.0386C48.3945 31.0386 48.3429 31.0166 48.3204 30.9896C48.2979 30.9626 48.2553 30.9406 48.2257 30.9406C48.196 30.9406 48.1167 30.9112 48.0494 30.8752C47.9822 30.8393 47.9067 30.8099 47.8818 30.8099C47.8569 30.8099 47.8181 30.7878 47.7956 30.7608C47.7732 30.7339 47.7216 30.7118 47.6809 30.7118C47.6402 30.7118 47.5885 30.6898 47.5662 30.6628C47.5437 30.6359 47.5049 30.6138 47.48 30.6138C47.4551 30.6138 47.3796 30.5844 47.3123 30.5485C47.2451 30.5125 47.1703 30.4831 47.1462 30.4831C47.1221 30.4831 47.0802 30.461 47.0531 30.4341C47.0261 30.4071 46.97 30.3851 46.9283 30.3851C46.8867 30.3851 46.8343 30.363 46.8118 30.336C46.7895 30.3091 46.7512 30.287 46.7269 30.287C46.6859 30.287 46.5221 30.2145 46.3149 30.1046C46.2671 30.0791 46.1988 30.0584 46.1632 30.0584C46.1276 30.0584 46.0802 30.0364 46.0576 30.0094C46.0351 29.9824 45.9957 29.9604 45.97 29.9604C45.9441 29.9604 45.8611 29.9284 45.7854 29.8892C45.5188 29.7516 45.4732 29.7316 45.4253 29.7316C45.3988 29.7316 45.3587 29.7096 45.3362 29.6826C45.3138 29.6557 45.2711 29.6336 45.2415 29.6336C45.212 29.6336 45.1326 29.6042 45.0653 29.5683C44.998 29.5323 44.9226 29.5029 44.8976 29.5029C44.8727 29.5029 44.8339 29.4808 44.8116 29.4539C44.7891 29.4269 44.7374 29.4049 44.6967 29.4049C44.6561 29.4049 44.6057 29.3844 44.5848 29.3593C44.5639 29.3343 44.4958 29.3041 44.4332 29.2925C44.3707 29.2807 44.3197 29.2578 44.3197 29.2415C44.3197 29.2252 44.2685 29.2023 44.206 29.1906C44.1436 29.1789 44.0753 29.1488 44.0544 29.1238C44.0335 29.0987 43.9832 29.0782 43.9425 29.0782C43.9018 29.0782 43.8502 29.0562 43.8278 29.0292C43.8053 29.0022 43.7628 28.9801 43.7336 28.98C43.7042 28.9798 43.6359 28.9505 43.5818 28.9148C43.5277 28.8791 43.4502 28.8498 43.4097 28.8497C43.3691 28.8496 43.3359 28.8357 43.3359 28.819C43.3359 28.8023 43.3027 28.7791 43.2621 28.7677C43.187 28.7465 43.1097 28.7143 42.8403 28.5915C42.7572 28.5537 42.6665 28.5227 42.6389 28.5227C42.6112 28.5227 42.5801 28.5006 42.5698 28.4737C42.5593 28.4467 42.5153 28.4247 42.4719 28.4247C42.4285 28.4247 42.3745 28.4026 42.3521 28.3757C42.3296 28.3487 42.2835 28.3266 42.2495 28.3266C42.2156 28.3266 42.1328 28.2972 42.0654 28.2613C41.9982 28.2254 41.9262 28.196 41.9057 28.196C41.885 28.196 41.8499 28.174 41.8274 28.147C41.8049 28.1201 41.7532 28.098 41.7126 28.098C41.6719 28.098 41.6203 28.076 41.5978 28.049C41.5754 28.0221 41.5164 28 41.4667 28C41.417 28 41.358 28.0221 41.3355 28.049ZM41.6584 28.1782C41.7324 28.2187 41.8823 28.2866 42.2045 28.4257C42.2406 28.4412 42.366 28.4972 42.4832 28.5501C42.6005 28.6031 42.7923 28.6856 42.9095 28.7337C43.0267 28.7817 43.2186 28.8655 43.3359 28.92C43.4531 28.9744 43.6096 29.047 43.6838 29.0813C43.7579 29.1155 43.8307 29.1435 43.8456 29.1435C43.8605 29.1435 43.9327 29.1716 44.006 29.2059C44.0793 29.2402 44.2204 29.3049 44.3197 29.3496C44.4188 29.3943 44.6032 29.4779 44.7295 29.5351C44.8558 29.5924 45.0477 29.6755 45.1559 29.7199C45.2641 29.7641 45.3969 29.8208 45.451 29.846C45.5822 29.9068 45.8554 30.0272 46.156 30.1566C46.2913 30.2148 46.4979 30.3054 46.6151 30.3581C46.7324 30.4108 46.8578 30.4667 46.8939 30.4822C46.9299 30.4978 47.0434 30.5485 47.146 30.5948C47.2485 30.6413 47.3414 30.6791 47.3523 30.6791C47.3631 30.6791 47.4711 30.7245 47.5921 30.78C47.817 30.883 48.0558 30.9898 48.1728 31.0398C48.2088 31.0551 48.3343 31.1111 48.4516 31.1639C48.5688 31.2169 48.7602 31.3001 48.8769 31.3488C49.0653 31.4276 49.3147 31.5378 49.6156 31.675C49.6697 31.6996 49.773 31.745 49.8452 31.7756C50.1409 31.9013 50.2765 31.9597 50.37 32.0015C50.6889 32.1446 50.89 32.2325 51.1897 32.3599C51.2619 32.3905 51.3652 32.4357 51.4193 32.4603C51.5805 32.5333 51.7834 32.6221 52.3539 32.8697C52.6515 32.9987 53.0176 33.1616 53.1675 33.2314C53.3173 33.3013 53.4485 33.3584 53.459 33.3584C53.4695 33.3584 53.5387 33.3865 53.6128 33.4211C53.6869 33.4556 53.8139 33.5125 53.8951 33.5475C53.9763 33.5826 54.1128 33.6426 54.1985 33.681L54.3543 33.7508L54.3538 34.8043C54.3532 36.0383 54.3781 35.9543 54.0184 35.932C53.6228 35.9074 53.6328 35.8956 53.6328 36.3921C53.6328 36.8841 53.6312 36.8869 53.3393 36.8876C53.2212 36.8878 53.1034 36.9014 53.0776 36.9177C53.0256 36.9505 53.0006 37.4993 53.0454 37.6251C53.0756 37.7102 53.0995 50.1235 53.0695 50.1697C53.0574 50.1882 53.0439 50.3058 53.0393 50.431L53.031 50.6587L53.5204 50.7758L54.01 50.8928L54.0182 51.1352C54.0306 51.4967 54.0385 51.5154 54.1888 51.5407C54.3544 51.5687 54.356 51.5749 54.3379 52.1418C54.3243 52.5675 54.3167 52.6164 54.2565 52.6584C54.1792 52.7123 50.709 52.7344 50.6912 52.6809C50.6803 52.6485 50.2748 52.6523 50.221 52.6854C50.1369 52.7372 46.7314 52.7034 46.6922 52.6504C46.6715 52.6224 46.6494 52.6128 46.643 52.6294C46.6145 52.7035 42.3547 52.7466 42.227 52.6741C42.1842 52.6498 42.1341 52.6427 42.1122 52.6578C42.0196 52.7215 35.0246 52.6566 35.0121 52.5917C35.0058 52.5587 35.0292 52.4999 35.0642 52.4611C35.0993 52.4223 35.1366 52.3684 35.1473 52.3414C35.1582 52.3145 35.2713 52.1454 35.3991 51.9658C35.5267 51.786 35.6515 51.5949 35.6766 51.541C35.7017 51.4871 35.7834 51.3789 35.8581 51.3006C36.159 50.9859 35.8628 51.1217 35.492 51.4684C35.2393 51.7048 35.0461 52.0002 34.9813 52.249C34.9403 52.4073 34.8361 52.3984 34.7951 52.2331C34.7699 52.1311 34.7766 52.0835 34.8317 51.9718C34.9391 51.754 35.0003 51.6125 35.0246 51.5247C35.0604 51.3958 35.389 50.9397 35.6048 50.7193C35.7809 50.5393 35.8215 50.4465 35.7237 50.4465C35.6052 50.4465 35.0849 51.0182 34.9106 51.3399C34.8537 51.4449 34.7863 51.5625 34.7608 51.6013C34.7355 51.64 34.7046 51.7342 34.6923 51.8105C34.6802 51.8869 34.6579 51.9493 34.643 51.9493C34.6086 51.9493 34.4818 51.6659 34.4818 51.5891C34.4818 51.5573 34.4281 51.4778 34.3625 51.4123C34.2618 51.3121 34.2402 51.2646 34.2232 51.1069C34.2057 50.9454 34.1931 50.9188 34.1292 50.9097C34.0587 50.8998 34.0555 50.886 34.0555 50.5896C34.0555 50.1571 34.0756 50.1241 34.7378 49.4784C34.9614 49.2604 35.1316 49.0743 35.1162 49.0649C34.9678 48.9735 34.3842 49.4099 34.1717 49.7712C34.0644 49.9535 34.0207 49.9374 34.0122 49.7125L34.0063 49.5584L34.3342 49.2528C34.8189 48.8011 34.9309 48.7017 34.9706 48.6885C35.0547 48.6605 34.9961 48.6167 34.8745 48.6167C34.6291 48.6167 34.1506 48.9827 34.0349 49.2588C33.9822 49.3845 33.9481 49.3782 33.8704 49.2284C33.841 49.1718 33.7827 49.0987 33.7408 49.0659C33.6344 48.9824 33.6801 48.9024 33.952 48.6963C34.1727 48.5291 34.5519 48.29 34.5965 48.29C34.6349 48.29 34.9056 48.1129 34.9069 48.0869C34.9202 47.8273 34.1194 48.1571 33.8409 48.526C33.7007 48.7118 33.6616 48.6897 33.6655 48.4278C33.6702 48.1254 33.762 48.0479 34.4287 47.7854C34.9045 47.5978 34.9501 47.5619 34.8056 47.4874C34.6194 47.3914 34.126 47.5646 33.8574 47.8202C33.7099 47.9603 33.6948 47.9587 33.6948 47.8025C33.6948 47.5586 33.7384 47.5276 34.3178 47.3598C34.7386 47.238 34.8738 47.1582 34.7755 47.0894C34.6395 46.9946 34.1709 47.0839 33.9672 47.2436C33.8537 47.3325 33.7932 47.3276 33.7932 47.2293C33.7932 47.1231 33.9078 47.021 34.053 46.9979C34.5657 46.9165 35.0669 46.7316 34.9237 46.6769C34.688 46.5868 34.3256 46.6363 34.062 46.7947C33.9202 46.8799 33.9014 46.8531 33.9824 46.6812C34.0594 46.518 34.1349 46.4731 34.3807 46.4446C34.5881 46.4204 34.8507 46.2819 34.8357 46.2044C34.8179 46.1123 34.5947 46.0915 34.4252 46.1661C34.2479 46.2442 34.2522 46.2438 34.2522 46.1842C34.2522 46.0733 34.4064 45.9661 34.586 45.9523C35.0101 45.9196 35.1368 45.8153 34.8179 45.7614C34.5048 45.7084 34.6158 45.493 34.9344 45.5357C35.265 45.5798 35.3169 45.4473 35.0083 45.3471C34.8411 45.2928 34.8383 45.2931 34.7239 45.3704C34.569 45.4752 34.5606 45.4638 34.5358 45.1147C34.5057 44.691 34.4 44.5991 34.3073 44.916C34.2555 45.0929 34.2827 45.295 34.3847 45.4899L34.4508 45.6164L34.3817 45.7279C34.3261 45.8174 34.2541 45.8748 34.2517 45.8313C34.2516 45.8268 34.2222 45.6835 34.1867 45.5128C34.151 45.3421 34.1217 45.1468 34.1215 45.0788C34.121 44.938 34.0482 44.8852 33.9668 44.9663C33.8244 45.1082 33.9024 45.6762 34.0937 45.8906C34.1268 45.9278 34.1538 45.9743 34.1538 45.9943C34.1538 46.0536 33.8885 46.5257 33.855 46.5257C33.7934 46.5257 33.642 46.0233 33.5843 45.6271C33.5416 45.334 33.4319 45.2333 33.3773 45.4372C33.2765 45.8139 33.4134 46.308 33.6921 46.5726C33.7964 46.6716 33.8157 46.7465 33.7623 46.8446C33.7453 46.8759 33.7229 46.9418 33.7125 46.9913C33.6842 47.1251 33.6262 47.0985 33.4946 46.8914C33.4295 46.7891 33.3079 46.5997 33.2243 46.4707C33.1407 46.3417 33.0556 46.1994 33.0352 46.1547C32.9812 46.0368 32.9078 46.0814 32.9078 46.2321C32.9078 46.5212 33.188 46.9657 33.4861 47.1492L33.6041 47.222L33.5826 47.4043C33.5708 47.5045 33.5495 47.5983 33.5353 47.6124C33.5102 47.6373 33.255 47.3858 33.0553 47.139C33.0012 47.0723 32.9127 46.9637 32.8586 46.8978C32.7586 46.7761 32.6795 46.6469 32.6061 46.4848C32.568 46.4007 32.4718 46.3638 32.437 46.4199C32.4284 46.4338 32.4411 46.5183 32.4649 46.6079C32.504 46.7543 32.5329 46.8183 32.6683 47.0582C32.7224 47.1541 32.6996 47.164 32.5679 47.1017C32.3632 47.005 32.1758 47.06 31.8327 47.3177C30.9806 47.9574 30.9168 47.9264 30.336 46.591C30.2149 46.3125 30.0576 45.9764 29.9864 45.8442L29.8569 45.6039L29.8683 41.6131C29.8746 39.418 29.8859 37.4763 29.8934 37.2978C29.9103 36.9003 29.9008 36.8871 29.5999 36.8871C29.3001 36.8871 29.3005 36.8878 29.3005 36.3741C29.3005 35.8748 29.3501 35.9279 28.8944 35.9392C28.5577 35.9474 28.5801 36.0264 28.5801 34.8287C28.5801 33.6359 28.5422 33.7621 28.9529 33.5882C29.1315 33.5126 29.3012 33.4379 29.3301 33.4221C29.3589 33.4063 29.4563 33.3622 29.5464 33.3241C29.6367 33.2859 29.7769 33.2253 29.858 33.1893C29.9392 33.1533 30.0351 33.1112 30.0711 33.0958C30.5047 32.911 30.5531 32.8898 31.1861 32.6069C31.3105 32.5513 31.4645 32.4834 31.5287 32.4558C31.6524 32.4029 31.7518 32.3593 31.9895 32.2534C32.0707 32.2173 32.2109 32.1561 32.301 32.1176C32.5375 32.0165 32.6467 31.9689 32.7765 31.9107C32.8396 31.8826 32.9651 31.8282 33.0553 31.79C33.1455 31.7519 33.2672 31.6996 33.3259 31.6736C33.3844 31.6478 33.4803 31.6055 33.539 31.5797C33.5976 31.5538 33.7194 31.5019 33.8095 31.4641C33.8997 31.4265 33.997 31.3828 34.0259 31.367C34.0547 31.3512 34.217 31.2794 34.3866 31.2073C34.5562 31.1353 34.7392 31.0532 34.7933 31.025C34.8474 30.9967 34.9026 30.9735 34.916 30.9734C34.9294 30.9733 35.0817 30.907 35.2542 30.8261C35.4267 30.7453 35.5771 30.6791 35.5883 30.6791C35.5996 30.6791 35.6689 30.6511 35.7422 30.6166C35.8155 30.5822 35.9492 30.5225 36.0394 30.4839C36.2604 30.3895 36.3558 30.3467 36.6544 30.2086C36.7942 30.1439 36.9196 30.091 36.9332 30.091C36.9466 30.091 37.0462 30.0486 37.1544 29.9968C37.4669 29.8471 37.6518 29.7644 37.6743 29.7644C37.6926 29.7644 37.9198 29.6655 38.2366 29.5195C38.2907 29.4946 38.4087 29.443 38.4989 29.4049C38.5891 29.3668 38.7109 29.3144 38.7694 29.2886C38.8281 29.2627 38.924 29.2208 38.9826 29.1953C39.0412 29.17 39.1555 29.1198 39.2367 29.0836C39.3179 29.0476 39.4507 28.9891 39.5318 28.9537C39.613 28.9183 39.7606 28.8529 39.8598 28.8082C39.959 28.7634 40.2025 28.6572 40.4009 28.5721C40.9757 28.3257 41.115 28.2631 41.2371 28.1963C41.3753 28.1207 41.5401 28.1137 41.6584 28.1782ZM59.8309 44.3416C59.649 44.5399 59.6324 45.1639 59.7989 45.539L59.8652 45.6884L59.925 45.576C60.2735 44.922 60.1986 43.9404 59.8309 44.3416ZM44.7214 44.4509C44.7218 44.5228 44.7284 44.5484 44.7363 44.5077C44.7442 44.467 44.7439 44.4082 44.7357 44.377C44.7274 44.3457 44.7211 44.3791 44.7214 44.4509ZM34.798 44.7352C34.7335 44.9751 34.8952 45.3716 34.9931 45.2138C35.0059 45.1931 34.993 45.159 34.9644 45.1381C34.9248 45.1093 34.9137 45.0496 34.9184 44.891C34.9249 44.6694 34.8438 44.5647 34.798 44.7352ZM35.1948 44.9939C35.0753 45.0828 35.1069 45.1207 35.3008 45.1207C35.5003 45.1207 35.564 45.0969 35.564 45.0227C35.564 44.9073 35.3354 44.8895 35.1948 44.9939ZM58.9339 45.4418C58.8042 45.5847 58.8396 46.0507 58.9941 46.2316C59.0172 46.2586 59.0756 46.3652 59.1242 46.4685C59.2557 46.7489 59.349 46.7277 59.3044 46.4277C59.178 45.5753 59.0712 45.2908 58.9339 45.4418ZM44.2978 45.4959C44.2978 45.5205 44.3248 45.5477 44.3579 45.5564C44.391 45.565 44.418 45.5592 44.418 45.5435C44.418 45.5278 44.391 45.5006 44.3579 45.483C44.3132 45.4591 44.2978 45.4624 44.2978 45.4959ZM29.414 45.5865C29.2622 45.8267 29.2349 45.9025 29.2349 46.0825C29.2349 46.2157 29.2484 46.2714 29.2841 46.2852C29.3112 46.2955 29.3343 46.3428 29.3356 46.3903C29.3398 46.5461 29.3809 46.6172 29.4232 46.5419C29.4491 46.4957 29.4464 46.4487 29.4131 46.3636C29.3287 46.1481 29.3908 45.7772 29.5353 45.6331C29.6476 45.5212 29.6529 45.4801 29.5546 45.4803C29.5072 45.4804 29.457 45.5184 29.414 45.5865ZM44.4133 45.7088C44.393 45.823 44.4014 45.867 44.4367 45.8317C44.4469 45.8215 44.4505 45.764 44.4445 45.7038L44.4335 45.5945L44.4133 45.7088ZM48.8123 46.0667C48.8393 46.085 48.8897 46.1002 48.9243 46.1004C49.0081 46.101 48.9821 46.0824 48.8614 46.0554C48.7896 46.0395 48.7763 46.0424 48.8123 46.0667ZM49.265 46.2576C49.3067 46.2882 49.4072 46.3684 49.4884 46.4358C49.5696 46.5031 49.6451 46.5583 49.6562 46.5583C49.6958 46.5583 49.5147 46.3872 49.3763 46.294C49.2262 46.1928 49.1378 46.1639 49.265 46.2576ZM29.4463 46.6666C29.4047 46.7726 29.7904 47.4726 29.8506 47.4004C29.8838 47.3604 29.7564 47.0271 29.691 46.9827C29.6775 46.9736 29.657 46.9285 29.6454 46.8827C29.6097 46.741 29.4746 46.5943 29.4463 46.6666ZM49.8069 46.738C50.127 47.2172 50.2523 47.9503 50.086 48.3716C50.0576 48.4436 50.0229 48.5318 50.0088 48.5677C49.9908 48.6135 49.9937 48.6233 50.0183 48.6004C50.3429 48.2984 50.179 46.9845 49.7754 46.6531C49.744 46.6274 49.7578 46.6646 49.8069 46.738ZM33.0281 47.465C33.12 47.5504 33.2522 47.6495 33.322 47.6853C33.4931 47.773 33.5646 47.9184 33.4664 47.9788C33.3265 48.0651 32.7422 47.4772 32.8289 47.3374C32.8525 47.2992 32.8428 47.2929 33.0281 47.465ZM30.0844 47.9438C30.3489 48.4443 30.2753 48.7823 29.97 48.469L29.858 48.3541V48.0335C29.858 47.5901 29.8907 47.5771 30.0844 47.9438ZM32.8234 47.8942C32.8507 47.9381 33.1355 48.0662 33.3013 48.1088C33.4268 48.1412 33.4504 48.1604 33.4594 48.2375C33.4785 48.3998 33.4459 48.4346 33.3423 48.362C33.2927 48.327 33.2152 48.2882 33.1701 48.2757C32.9718 48.2202 32.7427 48.1056 32.7254 48.0531C32.689 47.9429 32.7711 47.8099 32.8234 47.8942ZM32.6985 48.356C32.757 48.4143 33.1815 48.5211 33.3164 48.5116C33.4453 48.5025 33.4464 48.5033 33.4744 48.6433C33.5039 48.7907 33.4604 48.8992 33.3892 48.8554C33.349 48.8306 33.0056 48.761 32.6618 48.7081C32.5355 48.6886 32.4284 48.6697 32.4236 48.6661C32.4117 48.657 32.5383 48.3748 32.5672 48.346C32.6007 48.3127 32.6595 48.3171 32.6985 48.356ZM49.8287 48.8735C49.7223 49.0301 49.6515 49.1 49.5748 49.1248C49.5163 49.1437 49.4204 49.2043 49.3617 49.2597C49.303 49.3151 49.2181 49.3793 49.1731 49.4024C49.1278 49.4257 49.1087 49.4503 49.1306 49.4576C49.2398 49.4938 49.7783 49.0507 49.9261 48.8029C50.0495 48.5962 49.9862 48.642 49.8287 48.8735ZM32.9547 49.0262C33.2196 49.0543 33.3907 49.0259 33.4085 48.9506C33.4182 48.9099 33.4289 48.9197 33.4475 48.9857C33.482 49.109 33.2368 49.348 33.1045 49.3202C33.0594 49.3107 32.9043 49.2825 32.7599 49.2576C32.3392 49.1851 32.248 49.1361 32.2862 49.0033C32.3035 48.9436 32.3175 48.8921 32.3175 48.8888C32.3175 48.8855 32.4127 48.9099 32.529 48.943C32.6453 48.9762 32.8368 49.0135 32.9547 49.0262ZM32.2974 49.3191C32.3488 49.3881 32.6841 49.4989 32.8413 49.4989C32.9829 49.4989 32.998 49.5181 32.9299 49.611C32.8283 49.7493 32.1207 49.6497 32.1207 49.497C32.1207 49.3218 32.2229 49.219 32.2974 49.3191ZM53.2908 49.4522C53.2625 49.4805 53.2393 49.5172 53.2393 49.5339C53.2393 49.5506 53.2245 49.5643 53.2065 49.5643C53.1698 49.5643 53.1616 49.4566 53.1955 49.4226C53.2076 49.4106 53.2456 49.4008 53.2799 49.4008C53.3367 49.4008 53.3377 49.4055 53.2908 49.4522ZM40.2041 49.6868C40.1693 50.0066 40.1772 50.5972 40.217 50.6655C40.2418 50.7078 40.2516 50.5485 40.2523 50.0952C40.2534 49.4249 40.2426 49.3335 40.2041 49.6868ZM35.1376 49.564C34.8706 49.7087 34.3542 50.209 34.3512 50.3257C34.3508 50.3401 34.3205 50.4178 34.2837 50.4983C34.2362 50.6022 34.2231 50.6774 34.2382 50.7578C34.2611 50.8792 34.2982 50.9037 34.3309 50.8189C34.342 50.7901 34.3818 50.7277 34.4195 50.68C34.4571 50.6325 34.5684 50.4686 34.6669 50.3161C34.7654 50.1636 34.9485 49.9316 35.0738 49.8008C35.359 49.5029 35.3775 49.4339 35.1376 49.564ZM47.7301 49.5596C47.7301 49.5932 47.8294 49.6395 47.8523 49.6167C47.8603 49.6088 47.8361 49.5859 47.7985 49.5658C47.7608 49.5457 47.7301 49.543 47.7301 49.5596ZM49.2304 49.6853C49.2709 49.6931 49.3373 49.6931 49.3779 49.6853C49.4185 49.6775 49.3853 49.6711 49.3041 49.6711C49.223 49.6711 49.1898 49.6775 49.2304 49.6853ZM49.7223 49.6863C49.8169 49.6929 49.9719 49.6929 50.0666 49.6863C50.1613 49.6797 50.0838 49.6743 49.8944 49.6743C49.705 49.6743 49.6276 49.6797 49.7223 49.6863ZM32.3338 49.7892C32.3879 49.8082 32.4728 49.8319 32.5224 49.8417C32.6714 49.8712 32.64 49.9735 32.4637 50.0334C32.2543 50.1045 32.1207 50.0099 32.1207 49.7907C32.1207 49.7165 32.1264 49.7163 32.3338 49.7892ZM35.1696 50.1338C34.8732 50.3276 34.7162 50.5406 34.5656 50.9536C34.4005 51.4055 34.4655 51.5226 34.6621 51.1281C34.7343 50.9832 34.8453 50.8107 34.909 50.7447C34.9726 50.6788 35.0565 50.5733 35.0954 50.5105C35.1344 50.4477 35.2055 50.3598 35.2535 50.3151C35.4904 50.0946 35.4299 49.9636 35.1696 50.1338ZM46.6249 50.5118C46.6249 50.6106 46.6311 50.6511 46.6386 50.6016C46.6461 50.5522 46.6461 50.4713 46.6386 50.422C46.6311 50.3725 46.6249 50.4129 46.6249 50.5118ZM50.4371 50.4732C50.4236 50.5507 50.4205 50.622 50.4301 50.6317C50.4541 50.6555 50.495 50.4278 50.4764 50.3747C50.4683 50.3513 50.4505 50.3955 50.4371 50.4732ZM52.597 50.5781C52.7217 50.6149 52.8471 50.6398 52.8758 50.6331C52.94 50.6182 52.7175 50.5534 52.5178 50.5289C52.3922 50.5136 52.4041 50.5208 52.597 50.5781ZM34.0867 51.0878C34.1236 51.1708 34.1538 51.2543 34.1538 51.273C34.1538 51.2918 34.1767 51.3323 34.2046 51.3631C34.2965 51.4643 34.2361 51.582 34.094 51.5787C34.0277 51.5772 33.9228 51.6014 33.8608 51.6325C33.695 51.7157 33.6707 51.6645 33.7601 51.42C33.9565 50.883 33.9836 50.8555 34.0867 51.0878ZM50.725 51.7697C50.7251 51.8954 50.7311 51.943 50.7381 51.8751C50.7453 51.8073 50.7451 51.7044 50.7379 51.6465C50.7306 51.5884 50.7249 51.6439 50.725 51.7697ZM40.5524 51.6553C40.6162 51.7868 40.8469 52.0403 41.024 52.1733C41.2521 52.3449 41.3144 52.37 41.1423 52.221C40.958 52.0616 40.7939 51.8979 40.6372 51.7172C40.5603 51.6283 40.5279 51.6048 40.5524 51.6553ZM46.5209 51.7575C46.5178 51.8941 46.531 51.9529 46.572 51.9862C46.6212 52.0262 46.6246 52.0238 46.6014 51.9658C46.5872 51.9297 46.5641 51.8268 46.5502 51.737L46.5249 51.5737L46.5209 51.7575ZM34.2445 51.6499C34.2981 51.6838 34.4161 51.9143 34.4161 51.9851C34.4161 52.0198 34.3656 52.0574 34.2768 52.0885C34.2002 52.1154 33.9899 52.1895 33.8095 52.2532C33.6291 52.3168 33.4151 52.3861 33.334 52.4072C33.1763 52.4481 33.0717 52.521 33.0717 52.5899C33.0717 52.6132 33.0975 52.6472 33.1291 52.6656C33.1729 52.691 33.1416 52.6991 32.9968 52.6999C32.7819 52.701 32.7708 52.6216 32.9733 52.5323C33.0278 52.5082 33.08 52.4647 33.0894 52.4354C33.1146 52.3561 33.4851 52.0148 33.5459 52.0148C33.5919 52.0148 33.7024 51.9618 34.0105 51.7925C34.0529 51.7691 34.1032 51.7213 34.122 51.6863C34.1594 51.6168 34.1816 51.6101 34.2445 51.6499ZM45.7297 51.9709C45.4677 52.2361 45.4436 52.2684 45.5781 52.1749C45.7672 52.0434 46.1214 51.6541 46.0506 51.6555C46.0455 51.6557 45.9011 51.7975 45.7297 51.9709ZM56.4142 52.2364C56.456 52.2941 56.5063 52.3414 56.5259 52.3414C56.5455 52.3414 56.6102 52.3784 56.6697 52.4236C56.7293 52.4689 56.8233 52.5149 56.8789 52.5259C56.9656 52.5432 57.0432 52.6175 57.0432 52.683C57.0432 52.6936 56.8256 52.6953 56.5596 52.6868C56.2936 52.6784 55.9984 52.6715 55.9037 52.6716C55.6906 52.672 55.6862 52.6387 55.8719 52.4336C55.948 52.3495 56.0693 52.2134 56.1415 52.1311C56.2701 51.9844 56.2733 51.9829 56.3054 52.0563C56.3235 52.0976 56.3724 52.1786 56.4142 52.2364ZM46.6233 52.271C46.6189 52.3906 46.6297 52.5105 46.6474 52.5375C46.6702 52.572 46.6796 52.5191 46.6796 52.3578C46.6796 52.0596 46.6338 51.9888 46.6233 52.271ZM50.6553 52.0866C50.6106 52.1311 50.6003 52.5182 50.6444 52.4911C50.6602 52.4815 50.6805 52.4034 50.6897 52.3177C50.6988 52.2319 50.717 52.1361 50.7301 52.1046C50.7576 52.039 50.7135 52.0285 50.6553 52.0866ZM34.5935 52.2574C34.7785 52.5723 34.6285 52.6569 33.8423 52.6812C33.5402 52.6906 33.3628 52.6861 33.424 52.6706C33.4825 52.6559 33.5489 52.6292 33.5716 52.6112C33.5942 52.5933 33.6697 52.5685 33.7393 52.556C33.8829 52.5301 34.1538 52.4071 34.1538 52.3676C34.1538 52.3532 34.1699 52.3414 34.1896 52.3414C34.2093 52.3414 34.2858 52.29 34.3595 52.2271C34.5217 52.0888 34.492 52.085 34.5935 52.2574ZM50.2853 52.2353C50.301 52.348 50.3033 52.3504 50.3141 52.264C50.3205 52.2124 50.3129 52.1573 50.297 52.1415C50.2806 52.125 50.2756 52.1651 50.2853 52.2353ZM41.5388 52.4568C41.5873 52.5052 41.7669 52.5339 41.7278 52.487C41.706 52.4609 41.6507 52.4394 41.6048 52.4394C41.5588 52.4394 41.5292 52.4473 41.5388 52.4568ZM34.7769 52.6374C34.7769 52.6724 34.7622 52.7009 34.7441 52.7009C34.726 52.7009 34.7113 52.6633 34.7113 52.6172C34.7113 52.5698 34.7255 52.5424 34.7441 52.5539C34.7622 52.5649 34.7769 52.6025 34.7769 52.6374Z" fill="#528C17"/>
<path id="Vector_5" d="M36.459 32.1074C36.5046 32.1139 36.5443 32.1191 36.5781 32.123C36.612 32.127 36.64 32.1302 36.6621 32.1328C36.6882 32.1354 36.7103 32.1374 36.7285 32.1387C36.7493 32.1413 36.7747 32.14 36.8047 32.1348C36.8359 32.1296 36.8691 32.1243 36.9043 32.1191C36.9395 32.1126 36.9759 32.1074 37.0137 32.1035C37.0514 32.0996 37.0879 32.0996 37.123 32.1035C37.1465 32.1061 37.1764 32.1113 37.2129 32.1191C37.2493 32.127 37.2878 32.1393 37.3281 32.1562C37.3698 32.1732 37.4115 32.1953 37.4531 32.2227C37.4948 32.25 37.5326 32.2845 37.5664 32.3262C37.6003 32.3678 37.6283 32.4173 37.6504 32.4746C37.6725 32.5319 37.6849 32.599 37.6875 32.6758C37.6914 32.7904 37.681 32.8945 37.6562 32.9883C37.6315 33.082 37.5931 33.1621 37.541 33.2285C37.4902 33.2949 37.4258 33.347 37.3477 33.3848C37.2695 33.4225 37.1784 33.4434 37.0742 33.4473C36.9948 33.4538 36.9167 33.4596 36.8398 33.4648C36.8073 33.4674 36.7728 33.4694 36.7363 33.4707C36.7012 33.472 36.666 33.4733 36.6309 33.4746C36.5957 33.4746 36.5618 33.474 36.5293 33.4727C36.4967 33.4714 36.4668 33.4694 36.4395 33.4668C36.4694 33.4525 36.4935 33.4382 36.5117 33.4238C36.5312 33.4095 36.5462 33.3971 36.5566 33.3867C36.5684 33.3737 36.5768 33.362 36.582 33.3516C36.5846 33.3372 36.5885 33.3092 36.5938 33.2676C36.5977 33.2324 36.6029 33.1823 36.6094 33.1172C36.6159 33.0521 36.6237 32.9635 36.6328 32.8516L36.6445 32.7129C36.651 32.627 36.6536 32.5566 36.6523 32.502C36.6523 32.4473 36.651 32.4043 36.6484 32.373C36.6445 32.3366 36.6393 32.3099 36.6328 32.293C36.6276 32.2786 36.6178 32.2617 36.6035 32.2422C36.5905 32.2266 36.5723 32.2077 36.5488 32.1855C36.5267 32.1621 36.4967 32.1361 36.459 32.1074ZM36.8711 32.8262C36.8737 32.9421 36.8796 33.0312 36.8887 33.0938C36.8991 33.1549 36.9102 33.2005 36.9219 33.2305C36.9362 33.2643 36.9518 33.2845 36.9688 33.291C36.9935 33.291 37.0215 33.2806 37.0527 33.2598C37.084 33.2376 37.1146 33.2044 37.1445 33.1602C37.1758 33.1159 37.2038 33.0605 37.2285 32.9941C37.2546 32.9277 37.2734 32.8503 37.2852 32.7617C37.2969 32.6732 37.2936 32.5951 37.2754 32.5273C37.2572 32.4596 37.2331 32.403 37.2031 32.3574C37.1732 32.3105 37.1426 32.2754 37.1113 32.252C37.0801 32.2272 37.0566 32.2148 37.041 32.2148C37.0228 32.2148 37.0065 32.2201 36.9922 32.2305C36.9779 32.2396 36.9577 32.2611 36.9316 32.2949C36.9186 32.3132 36.9069 32.3392 36.8965 32.373C36.8874 32.403 36.8796 32.4427 36.873 32.4922C36.8665 32.5417 36.8646 32.6055 36.8672 32.6836L36.8711 32.8262ZM38.4805 32.0273C38.5508 32.0299 38.6217 32.043 38.6934 32.0664C38.7663 32.0885 38.8333 32.125 38.8945 32.1758C38.9557 32.2253 39.0078 32.2897 39.0508 32.3691C39.0938 32.4473 39.1204 32.543 39.1309 32.6562C39.14 32.7487 39.1283 32.8405 39.0957 32.9316C39.0645 33.0215 39.0208 33.1042 38.9648 33.1797C38.9089 33.2552 38.8444 33.3197 38.7715 33.373C38.6986 33.4251 38.6257 33.4596 38.5527 33.4766C38.5085 33.487 38.4596 33.4883 38.4062 33.4805C38.3542 33.4714 38.3008 33.4551 38.2461 33.4316C38.1927 33.4069 38.14 33.3757 38.0879 33.3379C38.0371 33.3001 37.9909 33.2572 37.9492 33.209C37.9076 33.1595 37.8724 33.1061 37.8438 33.0488C37.8164 32.9915 37.7995 32.9316 37.793 32.8691C37.7865 32.8171 37.7858 32.7598 37.791 32.6973C37.7975 32.6335 37.8099 32.5703 37.8281 32.5078C37.8477 32.444 37.8743 32.3828 37.9082 32.3242C37.9434 32.2643 37.9876 32.2122 38.041 32.168C38.0944 32.1224 38.1569 32.0872 38.2285 32.0625C38.3014 32.0365 38.3854 32.0247 38.4805 32.0273ZM38.1309 32.8184C38.1126 32.9577 38.1257 33.0697 38.1699 33.1543C38.2155 33.2389 38.2839 33.2904 38.375 33.3086C38.4193 33.3177 38.4616 33.3086 38.502 33.2812C38.5436 33.2526 38.5814 33.2116 38.6152 33.1582C38.6491 33.1048 38.6784 33.0423 38.7031 32.9707C38.7279 32.8991 38.7461 32.8242 38.7578 32.7461C38.7695 32.668 38.7702 32.5977 38.7598 32.5352C38.7507 32.4714 38.7344 32.4173 38.7109 32.373C38.6875 32.3275 38.6589 32.2923 38.625 32.2676C38.5924 32.2428 38.5586 32.2292 38.5234 32.2266C38.4622 32.2227 38.4089 32.2389 38.3633 32.2754C38.3177 32.3105 38.2793 32.3568 38.248 32.4141C38.2168 32.4714 38.1914 32.5358 38.1719 32.6074C38.1536 32.679 38.14 32.7493 38.1309 32.8184ZM39.1445 32.1152C39.2031 32.1257 39.2513 32.1328 39.2891 32.1367C39.3268 32.1406 39.3574 32.1439 39.3809 32.1465C39.4082 32.1491 39.4297 32.1497 39.4453 32.1484H39.5039C39.5247 32.1484 39.5508 32.1484 39.582 32.1484C39.6146 32.1471 39.6549 32.1465 39.7031 32.1465C39.7305 32.2103 39.7552 32.2689 39.7773 32.3223C39.8008 32.3757 39.8203 32.4212 39.8359 32.459C39.8542 32.5046 39.8711 32.5456 39.8867 32.582C39.9049 32.6276 39.9245 32.6777 39.9453 32.7324C39.9661 32.7871 39.985 32.8385 40.002 32.8867C40.0202 32.9349 40.0352 32.9746 40.0469 33.0059C40.0586 33.0371 40.0645 33.0514 40.0645 33.0488C40.0645 33.0488 40.0651 33.0345 40.0664 33.0098C40.0677 32.9837 40.069 32.9518 40.0703 32.9141C40.0716 32.875 40.0729 32.8327 40.0742 32.7871C40.0768 32.7402 40.0781 32.6953 40.0781 32.6523C40.0794 32.6081 40.0801 32.5677 40.0801 32.5312C40.0801 32.4948 40.0788 32.4674 40.0762 32.4492C40.0723 32.4271 40.0645 32.4017 40.0527 32.373C40.0423 32.3483 40.028 32.319 40.0098 32.2852C39.9915 32.25 39.9661 32.2103 39.9336 32.166C39.987 32.1673 40.0306 32.168 40.0645 32.168C40.0983 32.168 40.1257 32.168 40.1465 32.168C40.1699 32.168 40.1882 32.1673 40.2012 32.166C40.2181 32.166 40.2389 32.1647 40.2637 32.1621C40.2858 32.1595 40.3132 32.1576 40.3457 32.1562C40.3796 32.1536 40.4212 32.1504 40.4707 32.1465C40.4421 32.1725 40.4193 32.1973 40.4023 32.2207C40.3854 32.2441 40.3717 32.265 40.3613 32.2832C40.3496 32.304 40.3418 32.3236 40.3379 32.3418C40.3327 32.3652 40.3281 32.4036 40.3242 32.457C40.3216 32.5091 40.3184 32.5677 40.3145 32.6328C40.3118 32.6979 40.3092 32.7656 40.3066 32.8359C40.304 32.9062 40.3014 32.9707 40.2988 33.0293C40.2988 33.0736 40.2975 33.1211 40.2949 33.1719C40.2923 33.2148 40.2897 33.2637 40.2871 33.3184C40.2845 33.3717 40.2812 33.4258 40.2773 33.4805L40.1035 33.4844C40.0527 33.3945 40.0098 33.3177 39.9746 33.2539C39.9408 33.1888 39.9128 33.1354 39.8906 33.0938C39.8659 33.0456 39.8451 33.0052 39.8281 32.9727C39.8138 32.9414 39.7949 32.9056 39.7715 32.8652C39.752 32.8314 39.7272 32.7897 39.6973 32.7402C39.6686 32.6908 39.6341 32.6341 39.5938 32.5703C39.5898 32.6602 39.5879 32.737 39.5879 32.8008C39.5892 32.8633 39.5911 32.9154 39.5938 32.957C39.5977 33.0052 39.6022 33.0456 39.6074 33.0781C39.6139 33.1094 39.623 33.1445 39.6348 33.1836C39.6452 33.2174 39.6576 33.2572 39.6719 33.3027C39.6875 33.3483 39.7064 33.3997 39.7285 33.457C39.6517 33.4531 39.5944 33.4512 39.5566 33.4512H39.498C39.4798 33.4512 39.4551 33.4531 39.4238 33.457C39.3978 33.4596 39.362 33.4635 39.3164 33.4688C39.2721 33.474 39.2168 33.4811 39.1504 33.4902C39.1816 33.4525 39.2064 33.418 39.2246 33.3867C39.2441 33.3542 39.2591 33.3268 39.2695 33.3047C39.2826 33.2786 39.2917 33.2559 39.2969 33.2363C39.3008 33.2155 39.3034 33.1797 39.3047 33.1289C39.306 33.0768 39.306 33.0182 39.3047 32.9531C39.3047 32.8867 39.3034 32.8171 39.3008 32.7441C39.2995 32.6712 39.2975 32.6035 39.2949 32.541C39.2923 32.4785 39.2891 32.4251 39.2852 32.3809C39.2826 32.3366 39.2806 32.3092 39.2793 32.2988C39.2754 32.2819 39.2676 32.2637 39.2559 32.2441C39.2454 32.2272 39.2318 32.2083 39.2148 32.1875C39.1979 32.1654 39.1745 32.1413 39.1445 32.1152ZM40.7188 32.1777C40.7839 32.1816 40.8385 32.1849 40.8828 32.1875C40.9284 32.1888 40.9661 32.1901 40.9961 32.1914C41.0299 32.1927 41.0586 32.1927 41.082 32.1914C41.1055 32.1901 41.1374 32.1868 41.1777 32.1816C41.2116 32.1777 41.2565 32.1719 41.3125 32.1641C41.3698 32.1549 41.4408 32.1432 41.5254 32.1289C41.4954 32.1589 41.472 32.1862 41.4551 32.2109C41.4395 32.2344 41.4271 32.2546 41.418 32.2715C41.4076 32.2923 41.4004 32.3099 41.3965 32.3242C41.3939 32.3372 41.3965 32.3698 41.4043 32.4219C41.4121 32.474 41.4232 32.5358 41.4375 32.6074C41.4518 32.6777 41.4674 32.7533 41.4844 32.834C41.5013 32.9134 41.5182 32.9883 41.5352 33.0586C41.5521 33.1276 41.5671 33.1868 41.5801 33.2363C41.5944 33.2845 41.6048 33.3132 41.6113 33.3223C41.6309 33.3496 41.6432 33.3678 41.6484 33.377C41.6536 33.3848 41.6628 33.3919 41.6758 33.3984C41.681 33.401 41.6895 33.4049 41.7012 33.4102C41.7116 33.4154 41.7253 33.4219 41.7422 33.4297C41.7604 33.4375 41.7832 33.4466 41.8105 33.457C41.7598 33.4596 41.7161 33.4616 41.6797 33.4629C41.6432 33.4629 41.6133 33.4635 41.5898 33.4648C41.5625 33.4661 41.5391 33.4674 41.5195 33.4688C41.5 33.4688 41.4766 33.4701 41.4492 33.4727C41.4258 33.4753 41.3952 33.4779 41.3574 33.4805C41.321 33.4831 41.278 33.4857 41.2285 33.4883C41.2546 33.4701 41.2754 33.4538 41.291 33.4395C41.3079 33.4238 41.321 33.4108 41.3301 33.4004C41.3405 33.3874 41.3477 33.3757 41.3516 33.3652C41.3542 33.3535 41.3561 33.3359 41.3574 33.3125C41.3587 33.2917 41.3587 33.2643 41.3574 33.2305C41.3561 33.1953 41.3529 33.1497 41.3477 33.0938L40.834 33.1465C40.821 33.1686 40.8112 33.1882 40.8047 33.2051C40.7982 33.2207 40.7936 33.2344 40.791 33.2461C40.7871 33.2604 40.7858 33.2721 40.7871 33.2812C40.7897 33.2917 40.7943 33.304 40.8008 33.3184C40.8073 33.3314 40.8164 33.347 40.8281 33.3652C40.8411 33.3822 40.86 33.4023 40.8848 33.4258C40.8522 33.4245 40.819 33.4238 40.7852 33.4238C40.7513 33.4238 40.7201 33.4245 40.6914 33.4258C40.6576 33.4271 40.6243 33.4284 40.5918 33.4297C40.5592 33.431 40.5221 33.4329 40.4805 33.4355C40.4453 33.4382 40.4043 33.4414 40.3574 33.4453C40.3092 33.4479 40.2578 33.4518 40.2031 33.457C40.237 33.4414 40.2656 33.4258 40.2891 33.4102C40.3125 33.3932 40.332 33.3776 40.3477 33.3633C40.3659 33.3477 40.3815 33.3327 40.3945 33.3184C40.4036 33.3053 40.4219 33.2754 40.4492 33.2285C40.4766 33.1803 40.5072 33.1237 40.541 33.0586C40.5762 32.9935 40.6126 32.9238 40.6504 32.8496C40.6895 32.7754 40.7246 32.7057 40.7559 32.6406C40.7871 32.5742 40.8125 32.5169 40.832 32.4688C40.8516 32.4206 40.8613 32.3893 40.8613 32.375C40.8587 32.3581 40.8522 32.3392 40.8418 32.3184C40.8327 32.3001 40.8184 32.2793 40.7988 32.2559C40.7806 32.2324 40.7539 32.2064 40.7188 32.1777ZM41.3242 32.9492C41.3164 32.9036 41.3092 32.8646 41.3027 32.832C41.2962 32.7982 41.291 32.7702 41.2871 32.748C41.2819 32.722 41.278 32.6992 41.2754 32.6797C41.2715 32.6615 41.2669 32.638 41.2617 32.6094C41.2565 32.5846 41.25 32.554 41.2422 32.5176C41.2357 32.4798 41.2272 32.4349 41.2168 32.3828C41.1426 32.5312 41.0846 32.6465 41.043 32.7285C41.0026 32.8092 40.9733 32.8685 40.9551 32.9062C40.9329 32.9505 40.9206 32.9766 40.918 32.9844L41.3242 32.9492ZM41.6504 32.0742C41.7376 32.0846 41.8132 32.0924 41.877 32.0977C41.9408 32.1016 41.9935 32.1048 42.0352 32.1074C42.0833 32.11 42.1237 32.1107 42.1562 32.1094C42.1901 32.1081 42.2363 32.1048 42.2949 32.0996C42.3444 32.0957 42.4095 32.0905 42.4902 32.084C42.571 32.0762 42.6719 32.0658 42.793 32.0527C42.7943 32.0827 42.7949 32.112 42.7949 32.1406C42.7962 32.168 42.7975 32.1921 42.7988 32.2129C42.8001 32.2376 42.8008 32.2604 42.8008 32.2812C42.8008 32.3034 42.7995 32.3314 42.7969 32.3652C42.7943 32.3939 42.7897 32.4303 42.7832 32.4746C42.778 32.5176 42.7695 32.569 42.7578 32.6289C42.7396 32.5586 42.722 32.502 42.7051 32.459C42.6882 32.4147 42.6725 32.3796 42.6582 32.3535C42.6426 32.3236 42.627 32.3008 42.6113 32.2852C42.5944 32.2734 42.5742 32.2637 42.5508 32.2559C42.5299 32.2493 42.5033 32.2441 42.4707 32.2402C42.4395 32.2363 42.4023 32.237 42.3594 32.2422C42.3529 32.4141 42.3483 32.5534 42.3457 32.6602C42.3431 32.7669 42.3411 32.8503 42.3398 32.9102C42.3385 32.9818 42.3379 33.0332 42.3379 33.0645C42.3392 33.1087 42.3464 33.1523 42.3594 33.1953C42.3698 33.2318 42.3867 33.2695 42.4102 33.3086C42.4336 33.3477 42.4674 33.3822 42.5117 33.4121H42.2734C42.2513 33.4121 42.224 33.4134 42.1914 33.416C42.1641 33.4186 42.1289 33.4212 42.0859 33.4238C42.0443 33.4264 41.9954 33.431 41.9395 33.4375C41.959 33.4036 41.9746 33.373 41.9863 33.3457C41.998 33.3184 42.0072 33.2949 42.0137 33.2754C42.0215 33.252 42.0273 33.2311 42.0312 33.2129C42.0326 33.1868 42.0358 33.1341 42.041 33.0547C42.0423 33.0221 42.0436 32.9818 42.0449 32.9336C42.0475 32.8854 42.0501 32.8281 42.0527 32.7617C42.0566 32.6953 42.0599 32.6191 42.0625 32.5332C42.0664 32.446 42.0703 32.3477 42.0742 32.2383C42.0508 32.2318 42.0286 32.2324 42.0078 32.2402C41.987 32.2467 41.9688 32.2552 41.9531 32.2656C41.9349 32.2786 41.9173 32.2943 41.9004 32.3125C41.8835 32.3346 41.8646 32.3633 41.8438 32.3984C41.8255 32.4284 41.8047 32.4681 41.7812 32.5176C41.7578 32.5658 41.7311 32.6257 41.7012 32.6973C41.6947 32.6217 41.6901 32.5599 41.6875 32.5117C41.6849 32.4622 41.6829 32.4238 41.6816 32.3965C41.6803 32.3639 41.6797 32.3398 41.6797 32.3242C41.6797 32.3099 41.6784 32.291 41.6758 32.2676C41.6732 32.248 41.6699 32.2227 41.666 32.1914C41.6621 32.1589 41.6569 32.1198 41.6504 32.0742ZM42.7617 32.1543C42.806 32.1595 42.8431 32.1634 42.873 32.166C42.9043 32.1673 42.9297 32.1693 42.9492 32.1719C42.9727 32.1745 42.9909 32.1758 43.0039 32.1758C43.0182 32.1771 43.0397 32.1764 43.0684 32.1738C43.0931 32.1712 43.1263 32.168 43.168 32.1641C43.2109 32.1602 43.2656 32.1543 43.332 32.1465C43.3021 32.1725 43.278 32.1979 43.2598 32.2227C43.2428 32.2461 43.2298 32.2669 43.2207 32.2852C43.209 32.3073 43.2018 32.3281 43.1992 32.3477C43.194 32.3789 43.1895 32.4219 43.1855 32.4766C43.1829 32.5299 43.1803 32.5885 43.1777 32.6523C43.1751 32.7161 43.1738 32.7819 43.1738 32.8496C43.1738 32.9173 43.1745 32.9818 43.1758 33.043C43.1784 33.1029 43.1823 33.1562 43.1875 33.2031C43.194 33.25 43.2018 33.2839 43.2109 33.3047C43.224 33.3281 43.2376 33.3516 43.252 33.375C43.265 33.3945 43.2806 33.4147 43.2988 33.4355C43.3171 33.4564 43.3379 33.4733 43.3613 33.4863C43.2845 33.4824 43.2233 33.4805 43.1777 33.4805H43.1074C43.0866 33.4805 43.0599 33.4818 43.0273 33.4844C43 33.487 42.9655 33.4896 42.9238 33.4922C42.8822 33.4948 42.832 33.4987 42.7734 33.5039C42.8034 33.4714 42.8268 33.4401 42.8438 33.4102C42.8607 33.3802 42.8743 33.3542 42.8848 33.332C42.8965 33.306 42.9043 33.2812 42.9082 33.2578C42.9134 33.224 42.9173 33.1823 42.9199 33.1328C42.9238 33.082 42.9264 33.028 42.9277 32.9707C42.929 32.9121 42.929 32.8529 42.9277 32.793C42.9277 32.7318 42.9264 32.6732 42.9238 32.6172C42.9212 32.5612 42.9173 32.5104 42.9121 32.4648C42.9082 32.4193 42.903 32.3828 42.8965 32.3555C42.8926 32.3385 42.8848 32.3197 42.873 32.2988C42.8626 32.2806 42.8483 32.2598 42.8301 32.2363C42.8132 32.2116 42.7904 32.1842 42.7617 32.1543ZM44.0645 32.0273C44.1348 32.0299 44.2057 32.043 44.2773 32.0664C44.3503 32.0885 44.4173 32.125 44.4785 32.1758C44.5397 32.2253 44.5918 32.2897 44.6348 32.3691C44.6777 32.4473 44.7044 32.543 44.7148 32.6562C44.724 32.7487 44.7122 32.8405 44.6797 32.9316C44.6484 33.0215 44.6048 33.1042 44.5488 33.1797C44.4928 33.2552 44.4284 33.3197 44.3555 33.373C44.2826 33.4251 44.2096 33.4596 44.1367 33.4766C44.0924 33.487 44.0436 33.4883 43.9902 33.4805C43.9382 33.4714 43.8848 33.4551 43.8301 33.4316C43.7767 33.4069 43.724 33.3757 43.6719 33.3379C43.6211 33.3001 43.5749 33.2572 43.5332 33.209C43.4915 33.1595 43.4564 33.1061 43.4277 33.0488C43.4004 32.9915 43.3835 32.9316 43.377 32.8691C43.3704 32.8171 43.3698 32.7598 43.375 32.6973C43.3815 32.6335 43.3939 32.5703 43.4121 32.5078C43.4316 32.444 43.4583 32.3828 43.4922 32.3242C43.5273 32.2643 43.5716 32.2122 43.625 32.168C43.6784 32.1224 43.7409 32.0872 43.8125 32.0625C43.8854 32.0365 43.9694 32.0247 44.0645 32.0273ZM43.7148 32.8184C43.6966 32.9577 43.7096 33.0697 43.7539 33.1543C43.7995 33.2389 43.8678 33.2904 43.959 33.3086C44.0033 33.3177 44.0456 33.3086 44.0859 33.2812C44.1276 33.2526 44.1654 33.2116 44.1992 33.1582C44.2331 33.1048 44.2624 33.0423 44.2871 32.9707C44.3118 32.8991 44.3301 32.8242 44.3418 32.7461C44.3535 32.668 44.3542 32.5977 44.3438 32.5352C44.3346 32.4714 44.3184 32.4173 44.2949 32.373C44.2715 32.3275 44.2428 32.2923 44.209 32.2676C44.1764 32.2428 44.1426 32.2292 44.1074 32.2266C44.0462 32.2227 43.9928 32.2389 43.9473 32.2754C43.9017 32.3105 43.8633 32.3568 43.832 32.4141C43.8008 32.4714 43.7754 32.5358 43.7559 32.6074C43.7376 32.679 43.724 32.7493 43.7148 32.8184ZM44.7285 32.1152C44.7871 32.1257 44.8353 32.1328 44.873 32.1367C44.9108 32.1406 44.9414 32.1439 44.9648 32.1465C44.9922 32.1491 45.0137 32.1497 45.0293 32.1484H45.0879C45.1087 32.1484 45.1348 32.1484 45.166 32.1484C45.1986 32.1471 45.2389 32.1465 45.2871 32.1465C45.3145 32.2103 45.3392 32.2689 45.3613 32.3223C45.3848 32.3757 45.4043 32.4212 45.4199 32.459C45.4382 32.5046 45.4551 32.5456 45.4707 32.582C45.4889 32.6276 45.5085 32.6777 45.5293 32.7324C45.5501 32.7871 45.569 32.8385 45.5859 32.8867C45.6042 32.9349 45.6191 32.9746 45.6309 33.0059C45.6426 33.0371 45.6484 33.0514 45.6484 33.0488C45.6484 33.0488 45.6491 33.0345 45.6504 33.0098C45.6517 32.9837 45.653 32.9518 45.6543 32.9141C45.6556 32.875 45.6569 32.8327 45.6582 32.7871C45.6608 32.7402 45.6621 32.6953 45.6621 32.6523C45.6634 32.6081 45.6641 32.5677 45.6641 32.5312C45.6641 32.4948 45.6628 32.4674 45.6602 32.4492C45.6562 32.4271 45.6484 32.4017 45.6367 32.373C45.6263 32.3483 45.612 32.319 45.5938 32.2852C45.5755 32.25 45.5501 32.2103 45.5176 32.166C45.571 32.1673 45.6146 32.168 45.6484 32.168C45.6823 32.168 45.7096 32.168 45.7305 32.168C45.7539 32.168 45.7721 32.1673 45.7852 32.166C45.8021 32.166 45.8229 32.1647 45.8477 32.1621C45.8698 32.1595 45.8971 32.1576 45.9297 32.1562C45.9635 32.1536 46.0052 32.1504 46.0547 32.1465C46.026 32.1725 46.0033 32.1973 45.9863 32.2207C45.9694 32.2441 45.9557 32.265 45.9453 32.2832C45.9336 32.304 45.9258 32.3236 45.9219 32.3418C45.9167 32.3652 45.9121 32.4036 45.9082 32.457C45.9056 32.5091 45.9023 32.5677 45.8984 32.6328C45.8958 32.6979 45.8932 32.7656 45.8906 32.8359C45.888 32.9062 45.8854 32.9707 45.8828 33.0293C45.8828 33.0736 45.8815 33.1211 45.8789 33.1719C45.8763 33.2148 45.8737 33.2637 45.8711 33.3184C45.8685 33.3717 45.8652 33.4258 45.8613 33.4805L45.6875 33.4844C45.6367 33.3945 45.5938 33.3177 45.5586 33.2539C45.5247 33.1888 45.4967 33.1354 45.4746 33.0938C45.4499 33.0456 45.429 33.0052 45.4121 32.9727C45.3978 32.9414 45.3789 32.9056 45.3555 32.8652C45.3359 32.8314 45.3112 32.7897 45.2812 32.7402C45.2526 32.6908 45.2181 32.6341 45.1777 32.5703C45.1738 32.6602 45.1719 32.737 45.1719 32.8008C45.1732 32.8633 45.1751 32.9154 45.1777 32.957C45.1816 33.0052 45.1862 33.0456 45.1914 33.0781C45.1979 33.1094 45.207 33.1445 45.2188 33.1836C45.2292 33.2174 45.2415 33.2572 45.2559 33.3027C45.2715 33.3483 45.2904 33.3997 45.3125 33.457C45.2357 33.4531 45.1784 33.4512 45.1406 33.4512H45.082C45.0638 33.4512 45.0391 33.4531 45.0078 33.457C44.9818 33.4596 44.946 33.4635 44.9004 33.4688C44.8561 33.474 44.8008 33.4811 44.7344 33.4902C44.7656 33.4525 44.7904 33.418 44.8086 33.3867C44.8281 33.3542 44.8431 33.3268 44.8535 33.3047C44.8665 33.2786 44.8757 33.2559 44.8809 33.2363C44.8848 33.2155 44.8874 33.1797 44.8887 33.1289C44.89 33.0768 44.89 33.0182 44.8887 32.9531C44.8887 32.8867 44.8874 32.8171 44.8848 32.7441C44.8835 32.6712 44.8815 32.6035 44.8789 32.541C44.8763 32.4785 44.873 32.4251 44.8691 32.3809C44.8665 32.3366 44.8646 32.3092 44.8633 32.2988C44.8594 32.2819 44.8516 32.2637 44.8398 32.2441C44.8294 32.2272 44.8158 32.2083 44.7988 32.1875C44.7819 32.1654 44.7585 32.1413 44.7285 32.1152Z" fill="#F5CCA0"/>
</g>
</svg>
