<svg width="81" height="81" viewBox="0 0 81 81" fill="none" xmlns="http://www.w3.org/2000/svg">
<g id="vkf">
<rect width="81" height="81" rx="5" fill="#EBF0FF"/>
<path id="Vector" d="M40.5 65C54.031 65 65 54.031 65 40.5C65 26.969 54.031 16 40.5 16C26.969 16 16 26.969 16 40.5C16 54.031 26.969 65 40.5 65Z" fill="#2E3D4C"/>
<path id="Vector_2" d="M34.3768 31.228C33.4246 32.0538 32.7048 33.1142 32.2891 34.3041C31.8734 35.494 31.776 36.7719 32.0068 38.011C30.4848 37.135 28.8068 36.871 26.8788 37.031C26.753 37.0416 26.6305 37.0769 26.5184 37.135C26.4063 37.193 26.3068 37.2727 26.2256 37.3693C26.1443 37.4659 26.083 37.5777 26.0451 37.6981C26.0072 37.8185 25.9935 37.9453 26.0048 38.071C26.1618 39.797 26.9568 41.509 28.0648 42.847C27.6471 42.843 27.2298 42.8687 26.8158 42.924C26.5776 42.9558 26.3607 43.0775 26.2095 43.2642C26.0583 43.4509 25.9843 43.6885 26.0028 43.928C26.1496 45.8359 27.0112 47.6181 28.4152 48.9183C29.8192 50.2185 31.6622 50.9409 33.5758 50.941L35 51L36.3968 50.941C38.3105 50.9411 40.1538 50.2188 41.558 48.9186C42.9622 47.6184 43.8239 45.8361 43.9708 43.928C43.9892 43.6883 43.9151 43.4506 43.7637 43.2639C43.6123 43.0772 43.3951 42.9555 43.1568 42.924C42.7478 42.8694 42.3354 42.8437 41.9228 42.847C43.0308 41.508 43.8258 39.797 43.9828 38.071C43.994 37.9452 43.9803 37.8184 43.9423 37.6979C43.9044 37.5774 43.843 37.4656 43.7616 37.369C43.6803 37.2723 43.6122 37.558 43.5 37.5C43.3878 37.442 42.8922 37.969 43 37.5C40.8922 37.469 39.4928 37.135 37.9658 38.011C38.1967 36.772 38.0995 35.4941 37.6839 34.3043C37.2683 33.1144 36.5488 32.0539 35.5968 31.228C35.4276 31.081 35.2109 31 34.9868 31C34.7626 31 34.546 31.081 34.3768 31.228ZM34.9868 40.668C33.9602 39.5987 33.387 38.1738 33.387 36.6915C33.387 35.2092 33.9602 33.7843 34.9868 32.715C36.013 33.7843 36.5861 35.2089 36.5861 36.691C36.5861 38.1731 36.013 39.5987 34.9868 40.668ZM34.9868 46.274C33.8969 44.8888 32.4249 43.8535 30.7528 43.296C30.721 43.2647 30.6866 43.2362 30.6498 43.211C29.1798 42.211 27.9298 40.367 27.5768 38.491C29.4458 38.429 30.9128 38.878 32.2518 40.012C33.2768 40.881 33.7318 41.94 34.0688 42.727C34.1568 42.931 34.2358 43.117 34.3158 43.275C34.3781 43.3994 34.4739 43.504 34.5923 43.5771C34.7107 43.6502 34.8471 43.689 34.9863 43.689C35.1254 43.689 35.2619 43.6502 35.3803 43.5771C35.4987 43.504 35.5944 43.3994 35.6568 43.275C35.7368 43.116 35.8168 42.931 35.9038 42.727C36.2418 41.94 36.6958 40.88 37.7208 40.012C39.0598 38.879 40.5378 38.429 42.4108 38.491C42.0568 40.367 40.8078 42.211 39.3378 43.211C39.3037 43.234 39.2716 43.2598 39.2418 43.288C37.561 43.8443 36.0811 44.8822 34.9868 46.274ZM35.6298 47.981C37.0228 45.651 39.6318 44.201 42.4088 44.358C42.1693 45.7792 41.434 47.0696 40.3334 48.0002C39.2328 48.9307 37.838 49.4412 36.3968 49.441H33.5768C30.5768 49.441 28.0528 47.265 27.5658 44.359C30.3418 44.201 32.9508 45.65 34.3438 47.981C34.4104 48.0922 34.5047 48.1843 34.6174 48.2482C34.7302 48.3122 34.8576 48.3458 34.9873 48.3458C35.1169 48.3458 35.2443 48.3122 35.3571 48.2482C35.4699 48.1843 35.5632 48.0922 35.6298 47.981Z" fill="#F5CCA0"/>
<path id="Vector_3" d="M51.06 51H52.72C53.56 51 54.25 50.35 54.35 49.53L56 33.05H51V29H49.03V33.05H44.06L44.36 35.39C46.07 35.86 47.67 36.71 48.63 37.65C50.07 39.07 51.06 40.54 51.06 42.94V51ZM34 50L34.5 49.5H37L39 49H49.03V50C49.03 50.54 48.58 51 48 51H35C34.45 51 34 50.54 34 50ZM49.03 43C49.03 35 35 35 35 43H49.03ZM35 46.5C35.7831 46.5 35.7543 45.5754 36.2236 45C40.782 45 43.9252 45 49 45V47H34L35 46.5Z" fill="#F5CCA0"/>
</g>
</svg>
