<svg width="94" height="91" viewBox="0 0 94 91" fill="none" xmlns="http://www.w3.org/2000/svg">
<path id="Star 11" d="M38.9692 2.62401C43.7907 -0.752514 50.2093 -0.752511 55.0308 2.62401L63.1305 8.29622C64.3727 9.16616 65.748 9.82848 67.2027 10.2573L76.6874 13.0533C82.3335 14.7177 86.3354 19.7359 86.7017 25.6108L87.317 35.4799C87.4114 36.9935 87.7511 38.4817 88.3228 39.8864L92.0504 49.0451C94.2694 54.4971 92.8411 60.7548 88.4764 64.704L81.144 71.3384C80.0195 72.3559 79.0677 73.5494 78.326 74.8722L73.4895 83.497C70.6105 88.6311 64.8276 91.416 59.0185 90.4658L49.2599 88.8696C47.7632 88.6248 46.2368 88.6248 44.7401 88.8696L34.9815 90.4658C29.1724 91.416 23.3895 88.6311 20.5105 83.4969L15.674 74.8722C14.9323 73.5494 13.9805 72.3559 12.856 71.3384L5.52363 64.704C1.15888 60.7548 -0.269394 54.4971 1.94958 49.0451L5.67724 39.8864C6.24894 38.4817 6.58862 36.9935 6.68299 35.4799L7.29832 25.6108C7.66461 19.7359 11.6665 14.7177 17.3126 13.0533L26.7973 10.2573C28.252 9.82848 29.6273 9.16616 30.8695 8.29622L38.9692 2.62401Z" fill="#EBF0FF"/>
</svg>
